<svg width="17" height="16" viewBox="0 0 17 16" fill="none" xmlns="http://www.w3.org/2000/svg">
<path fill-rule="evenodd" clip-rule="evenodd" d="M4.77884 0C5.08709 0 5.33698 0.255837 5.33698 0.571429V1.71429C5.33698 2.02988 5.08709 2.28571 4.77884 2.28571C4.47059 2.28571 4.2207 2.02988 4.2207 1.71429V0.571429C4.2207 0.255837 4.47059 0 4.77884 0ZM12.2207 0C12.529 0 12.7788 0.255837 12.7788 0.571429V1.71429C12.7788 2.02988 12.529 2.28571 12.2207 2.28571C11.9125 2.28571 11.6626 2.02988 11.6626 1.71429V0.571429C11.6626 0.255837 11.9125 0 12.2207 0Z" fill="#0089ab"/>
<path fill-rule="evenodd" clip-rule="evenodd" d="M12.6158 8.16737C12.8338 8.39052 12.8338 8.75233 12.6158 8.97549L8.9944 12.6831C8.30951 13.3843 7.18811 13.3461 6.55028 12.5998L5.10344 10.9069C4.90045 10.6694 4.92396 10.3084 5.15594 10.1006C5.38793 9.89275 5.74054 9.91682 5.94352 10.1543L7.39037 11.8472C7.60298 12.096 7.97678 12.1087 8.20508 11.875L11.8265 8.16737C12.0445 7.94421 12.3979 7.94421 12.6158 8.16737Z" fill="#0089ab"/>
<path fill-rule="evenodd" clip-rule="evenodd" d="M3.81979 2.39223C3.07109 2.49533 2.63986 2.68866 2.32516 3.01113C2.01019 3.33332 1.82102 3.77516 1.72032 4.54169C1.70327 4.67148 1.68902 4.80812 1.6771 4.95238H3.94186C4.25011 4.95238 4.5 5.20822 4.5 5.52381C4.5 5.8394 4.25011 6.09524 3.94186 6.09524H1.62602C1.61652 6.59256 1.61628 7.15885 1.61628 7.80952V9.33333C1.61628 10.7861 1.61747 11.8182 1.72032 12.6012C1.82102 13.3677 2.00985 13.8092 2.32482 14.1314C2.63952 14.4539 3.07109 14.6475 3.81979 14.7506C4.58455 14.8559 5.59268 14.8571 7.01163 14.8571H9.98837C10.2966 14.8571 10.5465 15.113 10.5465 15.4286C10.5465 15.7442 10.2966 16 9.98837 16H6.96964C5.6021 16 4.5188 16 3.671 15.8833C2.79849 15.7631 2.09224 15.51 1.53549 14.9395C0.978513 14.3696 0.731329 13.6466 0.614004 12.7535C0.499979 11.8855 0.499988 10.7764 0.5 9.37633V7.76653C0.499994 6.98118 0.499988 6.28738 0.520108 5.67635C0.507002 5.62779 0.500001 5.57664 0.500001 5.52381C0.500001 5.45416 0.51217 5.38743 0.534451 5.32571C0.551339 4.98633 0.576505 4.67481 0.614004 4.38935C0.731341 3.49617 0.978563 2.77315 1.53566 2.20318C2.09238 1.63281 2.79858 1.37971 3.671 1.25958C4.51879 1.14284 5.60209 1.14284 6.96963 1.14286H10.0304C11.3979 1.14284 12.4812 1.14284 13.329 1.25958C14.2013 1.37969 14.9075 1.63276 15.4642 2.203C16.0214 2.773 16.2686 3.49608 16.386 4.38935C16.5 5.25733 16.5 6.36641 16.5 7.7665V9.37636C16.5 10.7764 16.5 11.8855 16.386 12.7535C16.2687 13.6466 16.0215 14.3696 15.4645 14.9395C14.8432 15.5765 14.0359 15.8179 13.0194 15.9196C12.7126 15.9503 12.4396 15.7205 12.4096 15.4064C12.3797 15.0923 12.6041 14.8128 12.9108 14.7821C13.8291 14.6903 14.3241 14.4913 14.6747 14.1319C14.9897 13.8097 15.179 13.3677 15.2797 12.6012C15.3825 11.8182 15.3837 10.7861 15.3837 9.33333V7.80952C15.3837 7.15885 15.3835 6.59256 15.374 6.09524H15.5698C15.878 6.09524 16.1279 5.8394 16.1279 5.52381C16.1279 5.20822 15.878 4.95238 15.5698 4.95238H15.3229C15.311 4.80812 15.2967 4.67148 15.2797 4.54169C15.179 3.77516 14.9901 3.33366 14.6752 3.01147C14.3605 2.689 13.9289 2.49533 13.1802 2.39223C12.4155 2.28693 11.4073 2.28571 9.98837 2.28571H7.01163C5.59268 2.28571 4.58455 2.28693 3.81979 2.39223ZM15.3229 4.95238H7.56977C7.26152 4.95238 7.01163 5.20822 7.01163 5.52381C7.01163 5.8394 7.26152 6.09524 7.56977 6.09524H15.374C15.3658 5.66626 15.3507 5.28861 15.3229 4.95238Z" fill="#0089ab"/>
</svg>
