<svg width="50" height="50" viewBox="0 0 50 50" fill="none" xmlns="http://www.w3.org/2000/svg">
<path d="M5.39783 6.61544C5.52205 6.61481 5.64626 6.61418 5.77424 6.61353C5.91186 6.61382 6.04948 6.61413 6.1871 6.61445C6.33346 6.61408 6.47983 6.61363 6.62619 6.61311C7.02851 6.61191 7.43083 6.61194 7.83315 6.61217C8.26698 6.61221 8.70081 6.61113 9.13464 6.6102C9.98454 6.60858 10.8344 6.60805 11.6843 6.60794C12.3749 6.60784 13.0654 6.60744 13.756 6.60682C15.7128 6.6051 17.6696 6.6042 19.6264 6.60435C19.7319 6.60436 19.8374 6.60436 19.9461 6.60437C20.0518 6.60438 20.1574 6.60439 20.2662 6.6044C21.9795 6.60448 23.6928 6.60261 25.4061 6.59985C27.1642 6.59705 28.9224 6.5957 30.6805 6.59587C31.668 6.59593 32.6555 6.59539 33.643 6.59329C34.4835 6.59152 35.324 6.59109 36.1644 6.59242C36.5935 6.59306 37.0225 6.59306 37.4515 6.59137C37.844 6.58984 38.2364 6.59011 38.6288 6.59182C38.7711 6.59212 38.9134 6.59175 39.0557 6.59067C39.2485 6.5893 39.4413 6.59056 39.6341 6.59195C39.7414 6.59191 39.8487 6.59187 39.9592 6.59182C40.2993 6.65205 40.4141 6.76331 40.6251 7.03119C40.6769 7.2265 40.6769 7.2265 40.6739 7.42181C40.6754 7.51849 40.6754 7.51849 40.6769 7.61713C40.6008 7.90395 40.4631 8.0171 40.2344 8.20306C39.9636 8.25198 39.9636 8.25198 39.6448 8.25211C39.5232 8.25311 39.4016 8.2541 39.2764 8.25513C39.1412 8.25427 39.0061 8.25336 38.8709 8.25243C38.7275 8.25287 38.5841 8.25347 38.4407 8.25423C38.0462 8.25584 37.6516 8.25501 37.2571 8.2538C36.8318 8.25291 36.4064 8.25428 35.9811 8.25538C35.2439 8.257 34.5068 8.2572 33.7696 8.25648C32.7032 8.25545 31.6369 8.25676 30.5705 8.25867C28.8398 8.26174 27.1091 8.2632 25.3783 8.26353C25.2747 8.26355 25.1711 8.26357 25.0643 8.26359C24.9606 8.26361 24.8568 8.26363 24.7499 8.26365C23.2792 8.26393 21.8084 8.2646 20.3377 8.26572C20.2342 8.2658 20.1307 8.26588 20.0241 8.26596C18.3001 8.2673 16.576 8.26943 14.852 8.27196C13.7881 8.27347 12.7242 8.27417 11.6602 8.27383C10.9315 8.27363 10.2027 8.27409 9.47399 8.27506C9.05325 8.27559 8.63251 8.27579 8.21177 8.27514C7.82679 8.27455 7.44182 8.27484 7.05685 8.27585C6.9174 8.27605 6.77795 8.27592 6.6385 8.27543C6.44925 8.2748 6.26 8.2755 6.07075 8.27625C5.91293 8.27627 5.91293 8.27627 5.75193 8.27629C5.45587 8.30184 5.24497 8.36204 4.98053 8.49603C4.71639 8.9164 4.75133 9.40508 4.74478 9.88649C4.74289 9.9725 4.741 10.0585 4.73905 10.1471C4.73323 10.4207 4.72869 10.6943 4.72418 10.968C4.72045 11.1539 4.71664 11.3399 4.71274 11.5259C4.70338 11.9807 4.69517 12.4356 4.68756 12.8906C7.03061 12.9466 9.37341 12.9853 11.7171 13.0042C12.8057 13.0133 13.8937 13.0278 14.982 13.0556C15.932 13.0799 16.8816 13.0934 17.832 13.0948C18.3342 13.0959 18.8352 13.1019 19.3371 13.1207C21.18 13.187 22.7483 13.2329 24.1708 11.9285C24.7434 11.3709 25.2628 10.7683 25.7538 10.1384C25.9766 9.86322 25.9766 9.86322 26.1719 9.76556C26.4229 9.75623 26.6711 9.75285 26.9221 9.75382C27.0396 9.7537 27.0396 9.7537 27.1594 9.75357C27.4233 9.75341 27.6873 9.75395 27.9512 9.75448C28.1398 9.7545 28.3284 9.75449 28.517 9.75443C29.0302 9.75441 29.5435 9.75498 30.0568 9.75566C30.5927 9.75627 31.1287 9.75633 31.6646 9.75645C32.68 9.75675 33.6955 9.75755 34.7109 9.75853C35.8667 9.75962 37.0225 9.76016 38.1783 9.76065C40.5564 9.76167 42.9345 9.76339 45.3126 9.76556C45.2876 9.59241 45.2608 9.41952 45.2332 9.24677C45.2185 9.15046 45.2038 9.05416 45.1886 8.95494C45.1126 8.67413 45.0543 8.57044 44.8243 8.39838C44.5498 8.30689 44.3737 8.28755 44.0892 8.28355C44.0038 8.28123 43.9184 8.2789 43.8304 8.2765C43.6511 8.27231 43.4718 8.26925 43.2925 8.26734C42.6415 8.24674 42.6415 8.24674 42.3245 8.02797C42.1807 7.80157 42.1346 7.68735 42.1387 7.42181C42.1372 7.32513 42.1372 7.32513 42.1357 7.2265C42.2118 6.93981 42.3498 6.82661 42.5782 6.64056C42.8522 6.59002 42.8522 6.59002 43.1657 6.58868C43.2798 6.58818 43.394 6.58768 43.5116 6.58716C43.6306 6.58867 43.7496 6.59018 43.8721 6.59174C43.9896 6.59023 44.107 6.58871 44.228 6.58716C45.0381 6.59072 45.5999 6.68399 46.2151 7.22307C46.2677 7.28664 46.3204 7.35021 46.3746 7.41571C46.4287 7.47903 46.4828 7.54235 46.5386 7.60759C46.824 8.02183 46.8995 8.38139 46.9002 8.88022C46.9008 8.99705 46.9014 9.11388 46.9021 9.23425C46.9016 9.42624 46.9016 9.42624 46.9012 9.62211C46.9015 9.75974 46.902 9.89737 46.9025 10.035C46.9037 10.4132 46.9037 10.7914 46.9035 11.1695C46.9034 11.5774 46.9045 11.9853 46.9054 12.3932C46.907 13.1923 46.9076 13.9914 46.9077 14.7905C46.9078 15.44 46.9082 16.0896 46.9088 16.7391C46.9105 18.5805 46.9114 20.4218 46.9113 22.2631C46.9113 22.3624 46.9113 22.4617 46.9113 22.564C46.9112 22.6634 46.9112 22.7628 46.9112 22.8652C46.9112 24.4762 46.913 26.0872 46.9158 27.6983C46.9186 29.3523 46.9199 31.0062 46.9198 32.6602C46.9197 33.5889 46.9202 34.5176 46.9223 35.4462C46.9241 36.2369 46.9245 37.0276 46.9232 37.8183C46.9226 38.2216 46.9226 38.625 46.9243 39.0284C46.9258 39.3978 46.9255 39.7673 46.9238 40.1367C46.9234 40.3333 46.9248 40.5299 46.9264 40.7264C46.9203 41.5299 46.8371 42.078 46.2926 42.6994C46.229 42.752 46.1654 42.8046 46.0999 42.8588C46.0366 42.913 45.9733 42.9671 45.908 43.0229C45.482 43.3164 45.1151 43.3838 44.6023 43.3844C44.4781 43.3851 44.3539 43.3857 44.2259 43.3863C44.0883 43.3861 43.9506 43.3858 43.813 43.3854C43.6667 43.3858 43.5203 43.3862 43.3739 43.3868C42.9716 43.388 42.5693 43.3879 42.167 43.3877C41.7331 43.3877 41.2993 43.3887 40.8655 43.3897C40.0156 43.3913 39.1657 43.3918 38.3158 43.3919C37.6252 43.392 36.9347 43.3924 36.2441 43.3931C34.2873 43.3948 32.3305 43.3957 30.3737 43.3955C30.2682 43.3955 30.1627 43.3955 30.054 43.3955C29.8955 43.3955 29.8955 43.3955 29.7339 43.3955C28.0206 43.3954 26.3073 43.3973 24.5941 43.4C22.8359 43.4028 21.0778 43.4042 19.3196 43.404C18.3321 43.4039 17.3446 43.4045 16.3571 43.4066C15.5166 43.4084 14.6762 43.4088 13.8357 43.4075C13.4066 43.4068 12.9776 43.4068 12.5486 43.4085C12.1561 43.41 11.7637 43.4098 11.3713 43.4081C11.229 43.4078 11.0867 43.4081 10.9445 43.4092C10.7517 43.4106 10.5588 43.4093 10.366 43.4079C10.2051 43.408 10.2051 43.408 10.0409 43.4081C9.70084 43.3478 9.58602 43.2366 9.37506 42.9687C9.32318 42.7734 9.32318 42.7734 9.32624 42.5781C9.32523 42.5136 9.32422 42.4492 9.32318 42.3828C9.39937 42.0959 9.53702 41.9828 9.76569 41.7968C10.0366 41.7479 10.0366 41.7479 10.3553 41.7478C10.4769 41.7468 10.5985 41.7458 10.7238 41.7447C10.8589 41.7456 10.9941 41.7465 11.1292 41.7474C11.2726 41.747 11.416 41.7464 11.5594 41.7456C11.954 41.744 12.3485 41.7449 12.7431 41.7461C13.1684 41.747 13.5937 41.7456 14.019 41.7445C14.7562 41.7429 15.4933 41.7427 16.2305 41.7434C17.2969 41.7444 18.3632 41.7431 19.4296 41.7412C21.1603 41.7381 22.8911 41.7367 24.6218 41.7364C24.7254 41.7363 24.8291 41.7363 24.9358 41.7363C25.0914 41.7363 25.0914 41.7363 25.2502 41.7362C26.721 41.7359 28.1917 41.7353 29.6625 41.7342C29.7659 41.7341 29.8694 41.734 29.976 41.7339C31.7 41.7326 33.4241 41.7304 35.1482 41.7279C36.2121 41.7264 37.276 41.7257 38.3399 41.726C39.0686 41.7262 39.7974 41.7258 40.5261 41.7248C40.9469 41.7243 41.3676 41.7241 41.7884 41.7247C42.1733 41.7253 42.5583 41.725 42.9433 41.724C43.0827 41.7238 43.2222 41.724 43.3616 41.7244C43.5509 41.7251 43.7401 41.7244 43.9294 41.7236C44.0346 41.7236 44.1398 41.7236 44.2482 41.7236C44.5522 41.6974 44.7551 41.657 45.0196 41.5038C45.21 41.1675 45.2395 40.8737 45.2405 40.4918C45.2412 40.3875 45.2419 40.2831 45.2427 40.1755C45.2425 40.0614 45.2423 39.9473 45.2421 39.8298C45.243 39.6473 45.243 39.6473 45.2438 39.4612C45.2452 39.1238 45.2457 38.7864 45.2458 38.449C45.2462 38.0851 45.2477 37.7212 45.249 37.3572C45.2512 36.7268 45.2527 36.0964 45.2536 35.4659C45.2551 34.5544 45.2576 33.6429 45.2603 32.7314C45.2648 31.2526 45.2683 29.7737 45.2714 28.2949C45.2743 26.8583 45.2777 25.4217 45.2816 23.9851C45.2818 23.8966 45.2821 23.808 45.2823 23.7168C45.2835 23.2726 45.2847 22.8283 45.2859 22.3841C45.2961 18.6988 45.3048 15.0134 45.3126 11.3281C42.9695 11.2721 40.6267 11.2333 38.2831 11.2145C37.1945 11.2053 36.1065 11.1908 35.0182 11.163C34.0681 11.1387 33.1185 11.1252 32.1681 11.1238C31.6659 11.1227 31.1649 11.1167 30.663 11.0979C28.8201 11.0316 27.2519 10.9857 25.8293 12.2902C25.2567 12.8477 24.7373 13.4503 24.2463 14.0803C24.0235 14.3554 24.0235 14.3554 23.8282 14.4531C23.5773 14.4624 23.329 14.4658 23.078 14.4648C22.9997 14.4649 22.9214 14.465 22.8407 14.4651C22.5768 14.4652 22.3129 14.4647 22.049 14.4642C21.8604 14.4641 21.6718 14.4641 21.4832 14.4642C20.9699 14.4642 20.4566 14.4636 19.9433 14.463C19.4074 14.4624 18.8715 14.4623 18.3355 14.4622C17.3201 14.4619 16.3047 14.4611 15.2892 14.4601C14.1334 14.459 12.9776 14.4585 11.8218 14.458C9.44374 14.457 7.06565 14.4552 4.68756 14.4531C4.69555 17.8287 4.70455 21.2043 4.71491 24.5798C4.71613 24.9782 4.71735 25.3766 4.71856 25.775C4.71892 25.8939 4.71892 25.8939 4.71929 26.0153C4.72317 27.3001 4.72637 28.5848 4.72931 29.8696C4.73235 31.1875 4.73612 32.5055 4.74057 33.8234C4.7433 34.6369 4.74545 35.4504 4.74687 36.2638C4.74789 36.8214 4.74963 37.379 4.75194 37.9365C4.75324 38.2584 4.75413 38.5802 4.75438 38.9021C4.7547 39.2509 4.75621 39.5996 4.75803 39.9484C4.75784 40.0504 4.75765 40.1523 4.75745 40.2573C4.75818 40.3508 4.75891 40.4443 4.75966 40.5406C4.75988 40.6212 4.76011 40.7017 4.76034 40.7846C4.78939 41.0543 4.86201 41.2604 4.98053 41.5038C5.47261 41.8216 6.15146 41.7341 6.71717 41.7373C7.36073 41.7545 7.36073 41.7545 7.67485 41.9715C7.81943 42.1982 7.86555 42.312 7.86139 42.5781C7.8624 42.6425 7.86341 42.707 7.86444 42.7734C7.78829 43.0601 7.65036 43.1733 7.42194 43.3593C7.14795 43.4099 7.14795 43.4099 6.83448 43.4112C6.66321 43.4119 6.66321 43.4119 6.48848 43.4127C6.36952 43.4112 6.25056 43.4097 6.12799 43.4081C6.01054 43.4097 5.89309 43.4112 5.77208 43.4127C4.96198 43.4092 4.40018 43.3159 3.78501 42.7768C3.73239 42.7132 3.67977 42.6497 3.62555 42.5842C3.57142 42.5208 3.51729 42.4575 3.46152 42.3923C3.1761 41.9781 3.10062 41.6185 3.09994 41.1197C3.09899 40.9444 3.09899 40.9444 3.09803 40.7656C3.09833 40.6376 3.09864 40.5096 3.09895 40.3778C3.09858 40.2401 3.09813 40.1025 3.09761 39.9649C3.09641 39.5867 3.09644 39.2085 3.09667 38.8303C3.09671 38.4225 3.09563 38.0146 3.0947 37.6067C3.09308 36.8076 3.09254 36.0085 3.09244 35.2094C3.09234 34.5598 3.09194 33.9103 3.09132 33.2608C3.0896 31.4194 3.0887 29.5781 3.08885 27.7367C3.08886 27.6375 3.08886 27.5382 3.08887 27.4359C3.08888 27.3365 3.08889 27.2371 3.0889 27.1347C3.08897 25.5236 3.08711 23.9126 3.08435 22.3016C3.08155 20.6476 3.0802 18.9936 3.08037 17.3396C3.08043 16.411 3.07989 15.4823 3.07779 14.5537C3.07602 13.763 3.07559 12.9723 3.07692 12.1816C3.07755 11.7782 3.07756 11.3749 3.07587 10.9715C3.07434 10.602 3.07461 10.2326 3.07632 9.86317C3.07676 9.66659 3.07528 9.47 3.07373 9.27343C3.07987 8.46997 3.16307 7.92187 3.70757 7.30051C3.77114 7.24789 3.83471 7.19527 3.90021 7.14105C3.96353 7.08692 4.02685 7.03279 4.09209 6.97702C4.51814 6.68347 4.88504 6.6161 5.39783 6.61544Z" fill="#185AA6"/>
<path d="M22.0702 22.0703C22.5164 22.4488 22.7984 22.9053 23.1017 23.4009C23.2041 23.5659 23.3064 23.7308 23.4088 23.8957C23.4613 23.9805 23.5137 24.0654 23.5677 24.1528C23.7323 24.4171 23.8993 24.6796 24.0672 24.9417C24.1212 25.0261 24.1752 25.1106 24.2309 25.1976C24.3353 25.3608 24.44 25.5239 24.545 25.6867C24.5919 25.7604 24.6388 25.834 24.6871 25.9098C24.7288 25.9747 24.7704 26.0396 24.8133 26.1065C24.9023 26.2696 24.9023 26.2696 24.9023 26.4649C24.9667 26.4649 25.0312 26.4649 25.0976 26.4649C25.1234 26.3949 25.1493 26.3249 25.1759 26.2528C25.296 25.9693 25.4376 25.7246 25.6015 25.4643C25.6625 25.367 25.7235 25.2697 25.7864 25.1695C25.8512 25.0672 25.9159 24.965 25.9826 24.8597C26.0485 24.7552 26.1143 24.6507 26.1822 24.543C26.3135 24.3348 26.4451 24.1268 26.5768 23.9189C26.7319 23.6736 26.8861 23.4278 27.0396 23.1816C27.1165 23.0593 27.1934 22.9371 27.2704 22.815C27.3354 22.7115 27.4003 22.608 27.4673 22.5014C27.6366 22.2657 27.6366 22.2657 27.9296 22.0703C28.3082 22.0381 28.5916 22.041 28.9062 22.2657C29.0848 22.5571 29.126 22.7765 29.1263 23.1159C29.1268 23.2079 29.1274 23.2999 29.128 23.3947C29.1276 23.4949 29.1272 23.5952 29.1268 23.6985C29.1271 23.8046 29.1274 23.9107 29.1278 24.02C29.1287 24.3711 29.1281 24.7222 29.1274 25.0733C29.1276 25.317 29.1277 25.5607 29.128 25.8045C29.1283 26.3154 29.1279 26.8264 29.1269 27.3373C29.1259 27.9278 29.1262 28.5182 29.1273 29.1086C29.1283 29.677 29.1282 30.2453 29.1276 30.8137C29.1275 31.0554 29.1276 31.2971 29.1281 31.5388C29.1286 31.8764 29.1278 32.214 29.1268 32.5516C29.1271 32.6519 29.1275 32.7521 29.128 32.8554C29.1274 32.9474 29.1269 33.0394 29.1263 33.1342C29.1262 33.214 29.1261 33.2938 29.1261 33.376C29.0903 33.6931 28.9969 33.9111 28.7475 34.1126C28.4064 34.2113 28.0701 34.2021 27.7343 34.0821C27.446 33.7984 27.4062 33.5572 27.3987 33.1594C27.3988 33.0896 27.399 33.0198 27.3991 32.9479C27.3976 32.8363 27.3976 32.8363 27.3961 32.7226C27.3931 32.4774 27.3922 32.2322 27.3914 31.987C27.3897 31.8168 27.3879 31.6466 27.386 31.4764C27.3814 31.0288 27.3785 30.5812 27.3759 30.1336C27.373 29.6767 27.3685 29.2198 27.3641 28.7629C27.3557 27.8667 27.3491 26.9705 27.3437 26.0743C27.1585 26.3672 26.9734 26.6602 26.7882 26.9532C26.7105 27.0761 26.7105 27.0761 26.6313 27.2015C26.5543 27.3233 26.5543 27.3233 26.4758 27.4475C26.4247 27.5282 26.3735 27.6089 26.3208 27.6921C26.2239 27.8465 26.1285 28.0019 26.0346 28.1582C25.9717 28.2626 25.9717 28.2626 25.9074 28.3692C25.8711 28.4306 25.8347 28.492 25.7973 28.5553C25.6835 28.711 25.6835 28.711 25.3905 28.9063C24.8446 28.9679 24.8446 28.9679 24.6093 28.9063C24.2583 28.5877 24.0006 28.2604 23.7529 27.8576C23.6884 27.7535 23.6239 27.6493 23.5574 27.542C23.4916 27.4343 23.4258 27.3266 23.3581 27.2156C23.2904 27.106 23.2227 26.9964 23.153 26.8835C22.9868 26.6141 22.8212 26.3444 22.6562 26.0743C22.6556 26.1688 22.655 26.2634 22.6544 26.3608C22.6488 27.2517 22.6417 28.1426 22.6332 29.0335C22.6288 29.4915 22.6249 29.9495 22.6223 30.4076C22.6198 30.8495 22.6159 31.2915 22.6109 31.7335C22.6093 31.9021 22.6082 32.0708 22.6076 32.2395C22.6066 32.4756 22.6039 32.7117 22.6007 32.9479C22.6009 33.0177 22.601 33.0875 22.6012 33.1594C22.5936 33.5572 22.5538 33.7984 22.2655 34.0821C21.9297 34.2021 21.5935 34.2113 21.2524 34.1126C21.0029 33.9111 20.9096 33.6931 20.8738 33.376C20.8737 33.2962 20.8736 33.2164 20.8736 33.1342C20.873 33.0422 20.8725 32.9502 20.8719 32.8554C20.8723 32.7552 20.8727 32.6549 20.8731 32.5516C20.8727 32.4455 20.8724 32.3394 20.872 32.2301C20.8712 31.879 20.8718 31.5279 20.8724 31.1768C20.8723 30.9331 20.8721 30.6893 20.8719 30.4456C20.8716 29.9347 20.872 29.4237 20.8729 28.9128C20.874 28.3223 20.8736 27.7319 20.8725 27.1414C20.8715 26.5731 20.8716 26.0047 20.8722 25.4364C20.8724 25.1947 20.8722 24.9529 20.8717 24.7112C20.8712 24.3736 20.872 24.0361 20.8731 23.6985C20.8727 23.5982 20.8723 23.498 20.8719 23.3947C20.8724 23.3027 20.873 23.2107 20.8736 23.1159C20.8736 23.0361 20.8737 22.9563 20.8738 22.8741C20.9013 22.6303 20.9659 22.474 21.0937 22.2657C21.4081 22.0411 21.6919 22.0163 22.0702 22.0703Z" fill="#185AA6"/>
<path d="M34.8855 22.0375C34.9896 22.0368 35.0937 22.0362 35.2009 22.0355C35.4201 22.0345 35.6392 22.034 35.8583 22.0341C36.1935 22.0336 36.5286 22.0301 36.8638 22.0264C37.0772 22.0258 37.2905 22.0254 37.5039 22.0252C37.6039 22.0238 37.7039 22.0224 37.807 22.021C38.2433 22.0238 38.5013 22.0264 38.8813 22.2548C39.0878 22.4896 39.1289 22.591 39.1236 22.9003C39.1255 23.0106 39.1255 23.0106 39.1274 23.1231C39.0264 23.4608 38.8751 23.5478 38.5743 23.7304C38.2328 23.786 37.8954 23.7802 37.5501 23.7762C37.4507 23.7769 37.3514 23.7776 37.2491 23.7783C36.8252 23.7812 36.4014 23.7795 35.9776 23.7783C35.6676 23.7781 35.3576 23.7802 35.0476 23.7823C34.9528 23.7812 34.858 23.7801 34.7602 23.7789C34.077 23.784 33.5257 23.911 33.0201 24.3934C32.6983 24.9187 32.6226 25.366 32.7149 25.9765C32.8791 26.4598 33.1562 26.7888 33.5938 27.0507C34.2986 27.274 34.9776 27.2801 35.7121 27.2842C36.7595 27.3105 37.5036 27.6478 38.2615 28.3676C39.031 29.2463 39.129 30.2221 39.0805 31.3415C39.0414 31.7807 38.8889 32.1408 38.672 32.5195C38.6389 32.581 38.6058 32.6426 38.5716 32.706C38.1042 33.4628 37.3379 33.8745 36.5074 34.1168C36.0411 34.2227 35.5821 34.2253 35.1056 34.2254C35.0019 34.2262 34.8983 34.2269 34.7914 34.2277C34.5741 34.2287 34.3567 34.229 34.1393 34.2286C33.8066 34.2285 33.4742 34.2326 33.1416 34.2369C32.9296 34.2374 32.7175 34.2376 32.5055 34.2376C32.3569 34.24 32.3569 34.24 32.2052 34.2425C31.7443 34.2379 31.5182 34.2334 31.1388 33.9532C30.8978 33.6059 30.8831 33.4222 30.9571 33.0078C31.1563 32.724 31.3125 32.5462 31.6616 32.4761C31.9321 32.46 32.1987 32.4596 32.4697 32.4642C32.569 32.4636 32.6683 32.4631 32.7707 32.4625C33.0878 32.4609 33.4049 32.4624 33.722 32.4645C34.0381 32.4662 34.3541 32.4671 34.6702 32.4656C34.8666 32.4647 35.0631 32.4655 35.2595 32.4684C35.8604 32.4661 36.3161 32.3772 36.8165 32.0312C37.2897 31.5337 37.3403 31.1128 37.3315 30.4485C37.2898 30.0229 37.1821 29.8287 36.9142 29.4921C36.1619 28.8965 35.2174 28.9798 34.3085 28.9705C33.3416 28.9419 32.54 28.5994 31.836 27.9296C31.6084 27.6521 31.424 27.3644 31.2501 27.0507C31.2167 26.9929 31.1834 26.9352 31.149 26.8756C30.7858 26.1104 30.8261 24.969 31.0975 24.1821C31.5716 23.1922 32.3728 22.5238 33.3931 22.1642C33.8845 22.0267 34.3786 22.0386 34.8855 22.0375Z" fill="#185AA6"/>
<path d="M13.6707 22.0375C13.8256 22.0365 13.8256 22.0365 13.9837 22.0355C14.2018 22.0345 14.4199 22.034 14.638 22.0341C14.9697 22.0336 15.3014 22.0301 15.6331 22.0264C15.8457 22.0258 16.0582 22.0254 16.2708 22.0252C16.3691 22.0238 16.4674 22.0224 16.5686 22.021C17.2752 22.0255 17.9108 22.1363 18.4453 22.6308C18.9419 23.1723 19.0923 23.6514 19.0727 24.3831C19.0429 24.6093 19.0429 24.6093 18.8964 24.8657C18.5493 25.0566 18.2582 25.0764 17.871 24.9999C17.4227 24.7168 17.3988 24.3146 17.2851 23.8281C16.6628 23.8256 16.0405 23.8239 15.4183 23.8227C15.2065 23.8222 14.9946 23.8216 14.7828 23.8207C14.4789 23.8195 14.1749 23.819 13.8709 23.8185C13.7758 23.818 13.6807 23.8175 13.5827 23.817C13.4508 23.817 13.4508 23.817 13.3161 23.817C13.2385 23.8168 13.1609 23.8166 13.0809 23.8163C12.8827 23.8161 12.8827 23.8161 12.6952 23.9257C12.578 24.2776 12.5839 24.5983 12.585 24.9645C12.5848 25.0402 12.5846 25.116 12.5844 25.1941C12.584 25.4447 12.5843 25.6954 12.5846 25.946C12.5846 26.12 12.5845 26.2941 12.5843 26.4681C12.5842 26.8329 12.5844 27.1977 12.5849 27.5626C12.5854 28.0305 12.5851 28.4985 12.5845 28.9664C12.5842 29.3258 12.5843 29.6852 12.5845 30.0446C12.5846 30.2172 12.5845 30.3898 12.5843 30.5623C12.584 30.8034 12.5844 31.0444 12.585 31.2854C12.5848 31.357 12.5846 31.4285 12.5844 31.5022C12.5856 31.8033 12.5992 32.0361 12.6952 32.3242C12.9249 32.439 13.0602 32.4336 13.3161 32.4329C13.4041 32.4329 13.4921 32.4329 13.5827 32.4329C13.6778 32.4324 13.7729 32.4319 13.8709 32.4314C13.9682 32.4312 14.0655 32.4311 14.1657 32.4309C14.4771 32.4304 14.7886 32.4292 15.1 32.4279C15.3109 32.4274 15.5217 32.427 15.7325 32.4266C16.25 32.4255 16.7676 32.4239 17.2851 32.4218C17.3035 32.3302 17.3035 32.3302 17.3222 32.2366C17.3473 32.117 17.3473 32.117 17.3728 31.995C17.3891 31.9157 17.4054 31.8365 17.4222 31.7548C17.4804 31.5429 17.4804 31.5429 17.6391 31.3415C17.9833 31.2056 18.288 31.1865 18.6523 31.2499C18.8964 31.3842 18.8964 31.3842 19.0429 31.6406C19.1401 32.2135 19.0713 32.7162 18.7824 33.2206C18.4078 33.7325 17.9952 34.0178 17.3827 34.1796C17.0239 34.209 16.6662 34.2093 16.3062 34.209C16.2027 34.2094 16.0992 34.2098 15.9925 34.2103C15.774 34.2108 15.5555 34.2109 15.337 34.2105C15.0042 34.2102 14.6714 34.2124 14.3386 34.2149C14.1258 34.2151 13.9129 34.2152 13.7 34.2151C13.6012 34.216 13.5024 34.2169 13.4006 34.2178C12.7264 34.2135 12.1317 34.1543 11.5974 33.7009C11.5448 33.6353 11.4921 33.5697 11.4379 33.5021C11.3567 33.4041 11.3567 33.4041 11.2739 33.3042C11.0438 32.9802 10.9134 32.7256 10.9107 32.3246C10.9097 32.2479 10.9087 32.1713 10.9077 32.0923C10.9076 32.0091 10.9076 31.9259 10.9075 31.8402C10.9067 31.7518 10.9059 31.6635 10.905 31.5725C10.9027 31.2803 10.9018 30.9882 10.9012 30.6961C10.9003 30.4927 10.8994 30.2893 10.8985 30.0859C10.8969 29.6594 10.8962 29.2328 10.8959 28.8063C10.8954 28.2607 10.8917 27.7152 10.8872 27.1697C10.8843 26.7494 10.8836 26.3292 10.8835 25.909C10.8831 25.7079 10.8819 25.5069 10.8798 25.3058C10.8772 25.0239 10.8777 24.7422 10.8789 24.4603C10.8775 24.3779 10.876 24.2954 10.8745 24.2105C10.8827 23.5447 11.1109 23.0875 11.5666 22.6045C12.1976 22.0363 12.8671 22.0392 13.6707 22.0375Z" fill="#185AA6"/>
<path d="M15.6249 9.7656C15.9242 9.96511 15.9981 10.1016 16.1071 10.4431C16.1146 10.8138 16.0666 10.9533 15.8202 11.2304C15.4138 11.4145 15.2293 11.4601 14.807 11.3037C14.5507 11.1328 14.5507 11.1328 14.453 10.9375C14.3975 10.2488 14.3975 10.2488 14.5995 9.91208C14.9439 9.70545 15.2331 9.68676 15.6249 9.7656Z" fill="#185AA6"/>
<path d="M11.7186 9.7656C12.0179 9.96511 12.0918 10.1016 12.2008 10.4431C12.2084 10.8138 12.1603 10.9533 11.914 11.2304C11.5075 11.4145 11.323 11.4601 10.9008 11.3037C10.6444 11.1328 10.6444 11.1328 10.5468 10.9375C10.4912 10.2488 10.4912 10.2488 10.6933 9.91208C11.0376 9.70545 11.3269 9.68676 11.7186 9.7656Z" fill="#185AA6"/>
<path d="M7.8124 9.7656C8.11167 9.96511 8.18559 10.1016 8.29458 10.4431C8.30214 10.8138 8.2541 10.9533 8.00771 11.2304C7.60128 11.4145 7.41676 11.4601 6.99453 11.3037C6.73818 11.1328 6.73818 11.1328 6.64052 10.9375C6.58498 10.2488 6.58498 10.2488 6.78701 9.91208C7.13138 9.70545 7.42062 9.68676 7.8124 9.7656Z" fill="#185AA6"/>
</svg>
