<svg width="16" height="16" viewBox="0 0 16 16" fill="none" xmlns="http://www.w3.org/2000/svg">
<path fill-rule="evenodd" clip-rule="evenodd" d="M5.75779 6.84312C5.75779 6.0183 6.38985 5.34965 7.16955 5.34965H8.83045C9.61015 5.34965 10.2422 6.0183 10.2422 6.84312V8.7288H11.8754C13.1749 8.7288 14.2284 9.84321 14.2284 11.2179V15.0044H15.5294C15.7893 15.0044 16 15.2272 16 15.5022C16 15.7771 15.7893 16 15.5294 16H0.470588C0.21069 16 0 15.7771 0 15.5022C0 15.2272 0.21069 15.0044 0.470588 15.0044H1.77163V13.1488C1.77163 11.7742 2.82508 10.6597 4.12457 10.6597H5.75779V6.84312ZM5.75779 11.6554H4.12457C3.34487 11.6554 2.7128 12.324 2.7128 13.1488V15.0044H5.75779V11.6554ZM6.69896 15.0044H9.30104V6.84312C9.30104 6.56818 9.09035 6.3453 8.83045 6.3453H7.16955C6.90965 6.3453 6.69896 6.56818 6.69896 6.84312V15.0044ZM10.2422 15.0044H13.2872V11.2179C13.2872 10.3931 12.6551 9.72444 11.8754 9.72444H10.2422V15.0044Z" fill="#0089ab"/>
<path fill-rule="evenodd" clip-rule="evenodd" d="M7.34203 0.492591C7.54487 -0.164195 8.45512 -0.164199 8.65797 0.49259L8.80746 0.976616H9.30875C9.97209 0.976616 10.2532 1.83915 9.72219 2.24505L9.2991 2.56843L9.45723 3.08045C9.65884 3.7332 8.92244 4.26645 8.38582 3.85629L8 3.56139L7.61418 3.85629C7.07757 4.26645 6.34116 3.73321 6.54277 3.08045L6.7009 2.56843L6.27781 2.24505C5.74677 1.83915 6.02791 0.976616 6.69125 0.976616H7.19254L7.34203 0.492591ZM8 0.96472L7.90671 1.26677C7.81616 1.55998 7.54984 1.75936 7.24874 1.75936H6.92158L7.2038 1.97507C7.43842 2.1544 7.53648 2.46552 7.44833 2.75091L7.34549 3.08392L7.58656 2.89965C7.83166 2.71232 8.16834 2.71232 8.41344 2.89965L8.65451 3.08392L8.55167 2.75091C8.46352 2.46552 8.56158 2.1544 8.7962 1.97507L9.07842 1.75936H8.75126C8.45016 1.75936 8.18385 1.55998 8.09329 1.26677L8 0.96472Z" fill="#0089ab"/>
</svg>
