<svg width="16" height="16" viewBox="0 0 16 16" fill="none" xmlns="http://www.w3.org/2000/svg">
<path fill-rule="evenodd" clip-rule="evenodd" d="M2.25556 1.4C2.05704 1.4 1.84734 1.488 1.6788 1.67762C1.50786 1.86992 1.4 2.14665 1.4 2.45V12.95C1.4 13.2534 1.50786 13.5301 1.6788 13.7224C1.84734 13.912 2.05704 14 2.25556 14H13.1444C13.343 14 13.5527 13.912 13.7212 13.7224C13.8921 13.5301 14 13.2534 14 12.95V2.45C14 2.14665 13.8921 1.86992 13.7212 1.67762C13.5527 1.488 13.343 1.4 13.1444 1.4H2.25556ZM0.632425 0.747508C1.04733 0.280746 1.62896 0 2.25556 0H13.1444C13.771 0 14.3527 0.280746 14.7676 0.747508C15.1801 1.21159 15.4 1.8251 15.4 2.45V12.95C15.4 13.5749 15.1801 14.1884 14.7676 14.6525C14.3527 15.1193 13.771 15.4 13.1444 15.4H2.25556C1.62896 15.4 1.04732 15.1193 0.632425 14.6525C0.219912 14.1884 0 13.5749 0 12.95V2.45C0 1.8251 0.219912 1.21159 0.632425 0.747508ZM3.11111 4.2C3.11111 3.8134 3.42451 3.5 3.81111 3.5H7.7C8.0866 3.5 8.4 3.8134 8.4 4.2C8.4 4.5866 8.0866 4.9 7.7 4.9H3.81111C3.42451 4.9 3.11111 4.5866 3.11111 4.2ZM9.33333 4.2C9.33333 3.8134 9.64673 3.5 10.0333 3.5H11.5889C11.9755 3.5 12.2889 3.8134 12.2889 4.2C12.2889 4.5866 11.9755 4.9 11.5889 4.9H10.0333C9.64673 4.9 9.33333 4.5866 9.33333 4.2ZM3.11111 7.7C3.11111 7.3134 3.42451 7 3.81111 7H4.58889C4.97549 7 5.28889 7.3134 5.28889 7.7C5.28889 8.0866 4.97549 8.4 4.58889 8.4H3.81111C3.42451 8.4 3.11111 8.0866 3.11111 7.7ZM6.22222 7.7C6.22222 7.3134 6.53562 7 6.92222 7H11.5889C11.9755 7 12.2889 7.3134 12.2889 7.7C12.2889 8.0866 11.9755 8.4 11.5889 8.4H6.92222C6.53562 8.4 6.22222 8.0866 6.22222 7.7ZM3.11111 11.2C3.11111 10.8134 3.42451 10.5 3.81111 10.5H7.7C8.0866 10.5 8.4 10.8134 8.4 11.2C8.4 11.5866 8.0866 11.9 7.7 11.9H3.81111C3.42451 11.9 3.11111 11.5866 3.11111 11.2ZM9.33333 11.2C9.33333 10.8134 9.64673 10.5 10.0333 10.5H11.5889C11.9755 10.5 12.2889 10.8134 12.2889 11.2C12.2889 11.5866 11.9755 11.9 11.5889 11.9H10.0333C9.64673 11.9 9.33333 11.5866 9.33333 11.2Z" fill="#185AA6"/>
</svg>
