<svg width="17" height="17" viewBox="0 0 17 17" fill="none" xmlns="http://www.w3.org/2000/svg">
<mask id="path-1-outside-1_299_2" maskUnits="userSpaceOnUse" x="0" y="0" width="17" height="17" fill="black">
<rect fill="white" width="17" height="17"/>
<path fill-rule="evenodd" clip-rule="evenodd" d="M3.07692 1H3.01923C2.755 1 2.52769 1 2.32692 1.0473C2.01612 1.12157 1.73194 1.28042 1.50588 1.50626C1.27982 1.7321 1.1207 2.01611 1.04615 2.32682C1 2.52757 1 2.75371 1 3.01908V5.90347C1 6.16768 1 6.39497 1.04731 6.59572C1.12157 6.9065 1.28044 7.19066 1.5063 7.4167C1.73215 7.64275 2.01619 7.80185 2.32692 7.87639C2.52769 7.92254 2.75385 7.92254 3.01923 7.92254H5.90385C6.16808 7.92254 6.39538 7.92254 6.59615 7.87524C6.90696 7.80098 7.19113 7.64213 7.4172 7.41629C7.64326 7.19045 7.80238 6.90644 7.87692 6.59572C7.92308 6.39497 7.92308 6.16883 7.92308 5.90347V3.01908C7.92308 2.75486 7.92308 2.52757 7.87577 2.32682C7.8015 2.01604 7.64264 1.73189 7.41678 1.50584C7.19092 1.2798 6.90689 1.12069 6.59615 1.04615C6.39538 1 6.16923 1 5.90385 1H3.07692ZM2.59577 2.16991C2.64538 2.15837 2.72269 2.15376 3.07692 2.15376H5.84615C6.20154 2.15376 6.27769 2.15722 6.32731 2.16991C6.43096 2.19469 6.52572 2.2477 6.60107 2.32305C6.67643 2.39841 6.72944 2.49316 6.75423 2.5968C6.76577 2.64526 6.76923 2.72141 6.76923 3.07676V5.84578C6.76923 6.20114 6.76577 6.27729 6.75308 6.3269C6.72829 6.43054 6.67528 6.52529 6.59992 6.60064C6.52456 6.676 6.4298 6.729 6.32615 6.75379C6.27885 6.76417 6.20269 6.76879 5.84615 6.76879H3.07692C2.72154 6.76879 2.64538 6.76533 2.59577 6.75263C2.49212 6.72785 2.39736 6.67484 2.322 6.59949C2.24664 6.52414 2.19363 6.42939 2.16885 6.32574C2.15846 6.27844 2.15385 6.20229 2.15385 5.84578V3.07676C2.15385 2.72141 2.15731 2.64526 2.17 2.59565C2.19479 2.492 2.2478 2.39725 2.32316 2.3219C2.39851 2.24655 2.49327 2.19354 2.59692 2.16876L2.59577 2.16991ZM11.1538 1H11.0962C10.8319 1 10.6046 1 10.4038 1.0473C10.093 1.12157 9.80887 1.28042 9.5828 1.50626C9.35674 1.7321 9.19762 2.01611 9.12308 2.32682C9.07692 2.52757 9.07692 2.75371 9.07692 3.01908V5.90347C9.07692 6.16768 9.07692 6.39497 9.12423 6.59572C9.1985 6.9065 9.35736 7.19066 9.58322 7.4167C9.80908 7.64275 10.0931 7.80185 10.4038 7.87639C10.6046 7.92254 10.8308 7.92254 11.0962 7.92254H13.9808C14.245 7.92254 14.4723 7.92254 14.6731 7.87524C14.9839 7.80098 15.2681 7.64213 15.4941 7.41629C15.7202 7.19045 15.8793 6.90644 15.9538 6.59572C16 6.39497 16 6.16883 16 5.90347V3.01908C16 2.75486 16 2.52757 15.9527 2.32682C15.8784 2.01604 15.7196 1.73189 15.4937 1.50584C15.2678 1.2798 14.9838 1.12069 14.6731 1.04615C14.4723 1 14.2462 1 13.9808 1H11.1538ZM10.6727 2.16991C10.7223 2.15837 10.7996 2.15376 11.1538 2.15376H13.9231C14.2785 2.15376 14.3546 2.15722 14.4042 2.16991C14.5079 2.19469 14.6026 2.2477 14.678 2.32305C14.7534 2.39841 14.8064 2.49316 14.8312 2.5968C14.8427 2.64526 14.8462 2.72141 14.8462 3.07676V5.84578C14.8462 6.20114 14.8415 6.27729 14.83 6.3269C14.8052 6.43054 14.7522 6.52529 14.6768 6.60064C14.6015 6.676 14.5067 6.729 14.4031 6.75379C14.3546 6.76533 14.2785 6.76879 13.9231 6.76879H11.1538C10.7985 6.76879 10.7223 6.76533 10.6727 6.75263C10.569 6.72785 10.4743 6.67484 10.3989 6.59949C10.3236 6.52414 10.2706 6.42939 10.2458 6.32574C10.2354 6.27844 10.2308 6.20229 10.2308 5.84578V3.07676C10.2308 2.72141 10.2342 2.64526 10.2469 2.59565C10.2717 2.492 10.3247 2.39725 10.4001 2.3219C10.4754 2.24655 10.5702 2.19354 10.6738 2.16876L10.6727 2.16991ZM3.01923 9.0763H5.90385C6.16808 9.0763 6.39538 9.0763 6.59615 9.12361C6.90696 9.19787 7.19113 9.35672 7.4172 9.58256C7.64326 9.8084 7.80238 10.0924 7.87692 10.4031C7.92308 10.6039 7.92308 10.83 7.92308 11.0954V13.9798C7.92308 14.244 7.92308 14.4713 7.87577 14.672C7.8015 14.9828 7.64264 15.267 7.41678 15.493C7.19092 15.719 6.90689 15.8782 6.59615 15.9527C6.39538 15.9988 6.16923 15.9988 5.90385 15.9988H3.01923C2.755 15.9988 2.52769 15.9988 2.32692 15.9515C2.01612 15.8773 1.73194 15.7184 1.50588 15.4926C1.27982 15.2667 1.1207 14.9827 1.04615 14.672C1 14.4713 1 14.2451 1 13.9798V11.0954C1 10.8312 1 10.6039 1.04731 10.4031C1.12157 10.0923 1.28044 9.80819 1.5063 9.58214C1.73215 9.3561 2.01619 9.19699 2.32692 9.12245C2.52769 9.0763 2.75385 9.0763 3.01923 9.0763ZM3.07692 10.2301C2.72154 10.2301 2.64538 10.2335 2.59577 10.2462C2.49212 10.271 2.39736 10.324 2.322 10.3994C2.24664 10.4747 2.19363 10.5695 2.16885 10.6731C2.15846 10.7204 2.15385 10.7966 2.15385 11.1531V13.9221C2.15385 14.2774 2.15731 14.3536 2.17 14.4032C2.19479 14.5068 2.2478 14.6016 2.32316 14.6769C2.39851 14.7523 2.49327 14.8053 2.59692 14.8301C2.64538 14.8416 2.72154 14.8451 3.07692 14.8451H5.84615C6.20154 14.8451 6.27769 14.8405 6.32731 14.8289C6.43096 14.8042 6.52572 14.7511 6.60107 14.6758C6.67643 14.6004 6.72944 14.5057 6.75423 14.402C6.76577 14.3536 6.76923 14.2774 6.76923 13.9221V11.1531C6.76923 10.7977 6.76577 10.7216 6.75308 10.6719C6.72829 10.5683 6.67528 10.4736 6.59992 10.3982C6.52456 10.3229 6.4298 10.2698 6.32615 10.2451C6.27885 10.2347 6.20269 10.2301 5.84615 10.2301H3.07692ZM11.1538 9.0763H11.0962C10.8319 9.0763 10.6046 9.0763 10.4038 9.12361C10.093 9.19787 9.80887 9.35672 9.5828 9.58256C9.35674 9.8084 9.19762 10.0924 9.12308 10.4031C9.07692 10.6039 9.07692 10.83 9.07692 11.0954V13.9798C9.07692 14.244 9.07692 14.4713 9.12423 14.672C9.1985 14.9828 9.35736 15.267 9.58322 15.493C9.80908 15.719 10.0931 15.8782 10.4038 15.9527C10.6046 16 10.8319 16 11.0962 16H13.9808C14.245 16 14.4723 16 14.6731 15.9527C14.9837 15.8782 15.2676 15.7193 15.4934 15.4935C15.7193 15.2677 15.8782 14.9837 15.9527 14.6732C16 14.4724 16 14.2451 16 13.9809V11.0954C16 10.8312 16 10.6039 15.9527 10.4031C15.8784 10.0923 15.7196 9.80819 15.4937 9.58214C15.2678 9.3561 14.9838 9.19699 14.6731 9.12245C14.4723 9.0763 14.2462 9.0763 13.9808 9.0763H11.1538ZM10.6727 10.2462C10.7223 10.2347 10.7996 10.2301 11.1538 10.2301H13.9231C14.2785 10.2301 14.3546 10.2335 14.4042 10.2462C14.5079 10.271 14.6026 10.324 14.678 10.3994C14.7534 10.4747 14.8064 10.5695 14.8312 10.6731C14.8427 10.7216 14.8462 10.7977 14.8462 11.1531V13.9221C14.8462 14.2774 14.8415 14.3536 14.83 14.4032C14.8052 14.5068 14.7522 14.6016 14.6768 14.6769C14.6015 14.7523 14.5067 14.8053 14.4031 14.8301C14.3546 14.8416 14.2785 14.8451 13.9231 14.8451H11.1538C10.7985 14.8451 10.7223 14.8405 10.6727 14.8289C10.569 14.8042 10.4743 14.7511 10.3989 14.6758C10.3236 14.6004 10.2706 14.5057 10.2458 14.402C10.2354 14.3547 10.2308 14.2786 10.2308 13.9221V11.1531C10.2308 10.7977 10.2342 10.7216 10.2469 10.6719C10.2717 10.5683 10.3247 10.4736 10.4001 10.3982C10.4754 10.3229 10.5702 10.2698 10.6738 10.2451L10.6727 10.2462Z"/>
</mask>
<path fill-rule="evenodd" clip-rule="evenodd" d="M3.07692 1H3.01923C2.755 1 2.52769 1 2.32692 1.0473C2.01612 1.12157 1.73194 1.28042 1.50588 1.50626C1.27982 1.7321 1.1207 2.01611 1.04615 2.32682C1 2.52757 1 2.75371 1 3.01908V5.90347C1 6.16768 1 6.39497 1.04731 6.59572C1.12157 6.9065 1.28044 7.19066 1.5063 7.4167C1.73215 7.64275 2.01619 7.80185 2.32692 7.87639C2.52769 7.92254 2.75385 7.92254 3.01923 7.92254H5.90385C6.16808 7.92254 6.39538 7.92254 6.59615 7.87524C6.90696 7.80098 7.19113 7.64213 7.4172 7.41629C7.64326 7.19045 7.80238 6.90644 7.87692 6.59572C7.92308 6.39497 7.92308 6.16883 7.92308 5.90347V3.01908C7.92308 2.75486 7.92308 2.52757 7.87577 2.32682C7.8015 2.01604 7.64264 1.73189 7.41678 1.50584C7.19092 1.2798 6.90689 1.12069 6.59615 1.04615C6.39538 1 6.16923 1 5.90385 1H3.07692ZM2.59577 2.16991C2.64538 2.15837 2.72269 2.15376 3.07692 2.15376H5.84615C6.20154 2.15376 6.27769 2.15722 6.32731 2.16991C6.43096 2.19469 6.52572 2.2477 6.60107 2.32305C6.67643 2.39841 6.72944 2.49316 6.75423 2.5968C6.76577 2.64526 6.76923 2.72141 6.76923 3.07676V5.84578C6.76923 6.20114 6.76577 6.27729 6.75308 6.3269C6.72829 6.43054 6.67528 6.52529 6.59992 6.60064C6.52456 6.676 6.4298 6.729 6.32615 6.75379C6.27885 6.76417 6.20269 6.76879 5.84615 6.76879H3.07692C2.72154 6.76879 2.64538 6.76533 2.59577 6.75263C2.49212 6.72785 2.39736 6.67484 2.322 6.59949C2.24664 6.52414 2.19363 6.42939 2.16885 6.32574C2.15846 6.27844 2.15385 6.20229 2.15385 5.84578V3.07676C2.15385 2.72141 2.15731 2.64526 2.17 2.59565C2.19479 2.492 2.2478 2.39725 2.32316 2.3219C2.39851 2.24655 2.49327 2.19354 2.59692 2.16876L2.59577 2.16991ZM11.1538 1H11.0962C10.8319 1 10.6046 1 10.4038 1.0473C10.093 1.12157 9.80887 1.28042 9.5828 1.50626C9.35674 1.7321 9.19762 2.01611 9.12308 2.32682C9.07692 2.52757 9.07692 2.75371 9.07692 3.01908V5.90347C9.07692 6.16768 9.07692 6.39497 9.12423 6.59572C9.1985 6.9065 9.35736 7.19066 9.58322 7.4167C9.80908 7.64275 10.0931 7.80185 10.4038 7.87639C10.6046 7.92254 10.8308 7.92254 11.0962 7.92254H13.9808C14.245 7.92254 14.4723 7.92254 14.6731 7.87524C14.9839 7.80098 15.2681 7.64213 15.4941 7.41629C15.7202 7.19045 15.8793 6.90644 15.9538 6.59572C16 6.39497 16 6.16883 16 5.90347V3.01908C16 2.75486 16 2.52757 15.9527 2.32682C15.8784 2.01604 15.7196 1.73189 15.4937 1.50584C15.2678 1.2798 14.9838 1.12069 14.6731 1.04615C14.4723 1 14.2462 1 13.9808 1H11.1538ZM10.6727 2.16991C10.7223 2.15837 10.7996 2.15376 11.1538 2.15376H13.9231C14.2785 2.15376 14.3546 2.15722 14.4042 2.16991C14.5079 2.19469 14.6026 2.2477 14.678 2.32305C14.7534 2.39841 14.8064 2.49316 14.8312 2.5968C14.8427 2.64526 14.8462 2.72141 14.8462 3.07676V5.84578C14.8462 6.20114 14.8415 6.27729 14.83 6.3269C14.8052 6.43054 14.7522 6.52529 14.6768 6.60064C14.6015 6.676 14.5067 6.729 14.4031 6.75379C14.3546 6.76533 14.2785 6.76879 13.9231 6.76879H11.1538C10.7985 6.76879 10.7223 6.76533 10.6727 6.75263C10.569 6.72785 10.4743 6.67484 10.3989 6.59949C10.3236 6.52414 10.2706 6.42939 10.2458 6.32574C10.2354 6.27844 10.2308 6.20229 10.2308 5.84578V3.07676C10.2308 2.72141 10.2342 2.64526 10.2469 2.59565C10.2717 2.492 10.3247 2.39725 10.4001 2.3219C10.4754 2.24655 10.5702 2.19354 10.6738 2.16876L10.6727 2.16991ZM3.01923 9.0763H5.90385C6.16808 9.0763 6.39538 9.0763 6.59615 9.12361C6.90696 9.19787 7.19113 9.35672 7.4172 9.58256C7.64326 9.8084 7.80238 10.0924 7.87692 10.4031C7.92308 10.6039 7.92308 10.83 7.92308 11.0954V13.9798C7.92308 14.244 7.92308 14.4713 7.87577 14.672C7.8015 14.9828 7.64264 15.267 7.41678 15.493C7.19092 15.719 6.90689 15.8782 6.59615 15.9527C6.39538 15.9988 6.16923 15.9988 5.90385 15.9988H3.01923C2.755 15.9988 2.52769 15.9988 2.32692 15.9515C2.01612 15.8773 1.73194 15.7184 1.50588 15.4926C1.27982 15.2667 1.1207 14.9827 1.04615 14.672C1 14.4713 1 14.2451 1 13.9798V11.0954C1 10.8312 1 10.6039 1.04731 10.4031C1.12157 10.0923 1.28044 9.80819 1.5063 9.58214C1.73215 9.3561 2.01619 9.19699 2.32692 9.12245C2.52769 9.0763 2.75385 9.0763 3.01923 9.0763ZM3.07692 10.2301C2.72154 10.2301 2.64538 10.2335 2.59577 10.2462C2.49212 10.271 2.39736 10.324 2.322 10.3994C2.24664 10.4747 2.19363 10.5695 2.16885 10.6731C2.15846 10.7204 2.15385 10.7966 2.15385 11.1531V13.9221C2.15385 14.2774 2.15731 14.3536 2.17 14.4032C2.19479 14.5068 2.2478 14.6016 2.32316 14.6769C2.39851 14.7523 2.49327 14.8053 2.59692 14.8301C2.64538 14.8416 2.72154 14.8451 3.07692 14.8451H5.84615C6.20154 14.8451 6.27769 14.8405 6.32731 14.8289C6.43096 14.8042 6.52572 14.7511 6.60107 14.6758C6.67643 14.6004 6.72944 14.5057 6.75423 14.402C6.76577 14.3536 6.76923 14.2774 6.76923 13.9221V11.1531C6.76923 10.7977 6.76577 10.7216 6.75308 10.6719C6.72829 10.5683 6.67528 10.4736 6.59992 10.3982C6.52456 10.3229 6.4298 10.2698 6.32615 10.2451C6.27885 10.2347 6.20269 10.2301 5.84615 10.2301H3.07692ZM11.1538 9.0763H11.0962C10.8319 9.0763 10.6046 9.0763 10.4038 9.12361C10.093 9.19787 9.80887 9.35672 9.5828 9.58256C9.35674 9.8084 9.19762 10.0924 9.12308 10.4031C9.07692 10.6039 9.07692 10.83 9.07692 11.0954V13.9798C9.07692 14.244 9.07692 14.4713 9.12423 14.672C9.1985 14.9828 9.35736 15.267 9.58322 15.493C9.80908 15.719 10.0931 15.8782 10.4038 15.9527C10.6046 16 10.8319 16 11.0962 16H13.9808C14.245 16 14.4723 16 14.6731 15.9527C14.9837 15.8782 15.2676 15.7193 15.4934 15.4935C15.7193 15.2677 15.8782 14.9837 15.9527 14.6732C16 14.4724 16 14.2451 16 13.9809V11.0954C16 10.8312 16 10.6039 15.9527 10.4031C15.8784 10.0923 15.7196 9.80819 15.4937 9.58214C15.2678 9.3561 14.9838 9.19699 14.6731 9.12245C14.4723 9.0763 14.2462 9.0763 13.9808 9.0763H11.1538ZM10.6727 10.2462C10.7223 10.2347 10.7996 10.2301 11.1538 10.2301H13.9231C14.2785 10.2301 14.3546 10.2335 14.4042 10.2462C14.5079 10.271 14.6026 10.324 14.678 10.3994C14.7534 10.4747 14.8064 10.5695 14.8312 10.6731C14.8427 10.7216 14.8462 10.7977 14.8462 11.1531V13.9221C14.8462 14.2774 14.8415 14.3536 14.83 14.4032C14.8052 14.5068 14.7522 14.6016 14.6768 14.6769C14.6015 14.7523 14.5067 14.8053 14.4031 14.8301C14.3546 14.8416 14.2785 14.8451 13.9231 14.8451H11.1538C10.7985 14.8451 10.7223 14.8405 10.6727 14.8289C10.569 14.8042 10.4743 14.7511 10.3989 14.6758C10.3236 14.6004 10.2706 14.5057 10.2458 14.402C10.2354 14.3547 10.2308 14.2786 10.2308 13.9221V11.1531C10.2308 10.7977 10.2342 10.7216 10.2469 10.6719C10.2717 10.5683 10.3247 10.4736 10.4001 10.3982C10.4754 10.3229 10.5702 10.2698 10.6738 10.2451L10.6727 10.2462Z" fill="#185AA6"/>
<path fill-rule="evenodd" clip-rule="evenodd" d="M3.07692 1H3.01923C2.755 1 2.52769 1 2.32692 1.0473C2.01612 1.12157 1.73194 1.28042 1.50588 1.50626C1.27982 1.7321 1.1207 2.01611 1.04615 2.32682C1 2.52757 1 2.75371 1 3.01908V5.90347C1 6.16768 1 6.39497 1.04731 6.59572C1.12157 6.9065 1.28044 7.19066 1.5063 7.4167C1.73215 7.64275 2.01619 7.80185 2.32692 7.87639C2.52769 7.92254 2.75385 7.92254 3.01923 7.92254H5.90385C6.16808 7.92254 6.39538 7.92254 6.59615 7.87524C6.90696 7.80098 7.19113 7.64213 7.4172 7.41629C7.64326 7.19045 7.80238 6.90644 7.87692 6.59572C7.92308 6.39497 7.92308 6.16883 7.92308 5.90347V3.01908C7.92308 2.75486 7.92308 2.52757 7.87577 2.32682C7.8015 2.01604 7.64264 1.73189 7.41678 1.50584C7.19092 1.2798 6.90689 1.12069 6.59615 1.04615C6.39538 1 6.16923 1 5.90385 1H3.07692ZM2.59577 2.16991C2.64538 2.15837 2.72269 2.15376 3.07692 2.15376H5.84615C6.20154 2.15376 6.27769 2.15722 6.32731 2.16991C6.43096 2.19469 6.52572 2.2477 6.60107 2.32305C6.67643 2.39841 6.72944 2.49316 6.75423 2.5968C6.76577 2.64526 6.76923 2.72141 6.76923 3.07676V5.84578C6.76923 6.20114 6.76577 6.27729 6.75308 6.3269C6.72829 6.43054 6.67528 6.52529 6.59992 6.60064C6.52456 6.676 6.4298 6.729 6.32615 6.75379C6.27885 6.76417 6.20269 6.76879 5.84615 6.76879H3.07692C2.72154 6.76879 2.64538 6.76533 2.59577 6.75263C2.49212 6.72785 2.39736 6.67484 2.322 6.59949C2.24664 6.52414 2.19363 6.42939 2.16885 6.32574C2.15846 6.27844 2.15385 6.20229 2.15385 5.84578V3.07676C2.15385 2.72141 2.15731 2.64526 2.17 2.59565C2.19479 2.492 2.2478 2.39725 2.32316 2.3219C2.39851 2.24655 2.49327 2.19354 2.59692 2.16876L2.59577 2.16991ZM11.1538 1H11.0962C10.8319 1 10.6046 1 10.4038 1.0473C10.093 1.12157 9.80887 1.28042 9.5828 1.50626C9.35674 1.7321 9.19762 2.01611 9.12308 2.32682C9.07692 2.52757 9.07692 2.75371 9.07692 3.01908V5.90347C9.07692 6.16768 9.07692 6.39497 9.12423 6.59572C9.1985 6.9065 9.35736 7.19066 9.58322 7.4167C9.80908 7.64275 10.0931 7.80185 10.4038 7.87639C10.6046 7.92254 10.8308 7.92254 11.0962 7.92254H13.9808C14.245 7.92254 14.4723 7.92254 14.6731 7.87524C14.9839 7.80098 15.2681 7.64213 15.4941 7.41629C15.7202 7.19045 15.8793 6.90644 15.9538 6.59572C16 6.39497 16 6.16883 16 5.90347V3.01908C16 2.75486 16 2.52757 15.9527 2.32682C15.8784 2.01604 15.7196 1.73189 15.4937 1.50584C15.2678 1.2798 14.9838 1.12069 14.6731 1.04615C14.4723 1 14.2462 1 13.9808 1H11.1538ZM10.6727 2.16991C10.7223 2.15837 10.7996 2.15376 11.1538 2.15376H13.9231C14.2785 2.15376 14.3546 2.15722 14.4042 2.16991C14.5079 2.19469 14.6026 2.2477 14.678 2.32305C14.7534 2.39841 14.8064 2.49316 14.8312 2.5968C14.8427 2.64526 14.8462 2.72141 14.8462 3.07676V5.84578C14.8462 6.20114 14.8415 6.27729 14.83 6.3269C14.8052 6.43054 14.7522 6.52529 14.6768 6.60064C14.6015 6.676 14.5067 6.729 14.4031 6.75379C14.3546 6.76533 14.2785 6.76879 13.9231 6.76879H11.1538C10.7985 6.76879 10.7223 6.76533 10.6727 6.75263C10.569 6.72785 10.4743 6.67484 10.3989 6.59949C10.3236 6.52414 10.2706 6.42939 10.2458 6.32574C10.2354 6.27844 10.2308 6.20229 10.2308 5.84578V3.07676C10.2308 2.72141 10.2342 2.64526 10.2469 2.59565C10.2717 2.492 10.3247 2.39725 10.4001 2.3219C10.4754 2.24655 10.5702 2.19354 10.6738 2.16876L10.6727 2.16991ZM3.01923 9.0763H5.90385C6.16808 9.0763 6.39538 9.0763 6.59615 9.12361C6.90696 9.19787 7.19113 9.35672 7.4172 9.58256C7.64326 9.8084 7.80238 10.0924 7.87692 10.4031C7.92308 10.6039 7.92308 10.83 7.92308 11.0954V13.9798C7.92308 14.244 7.92308 14.4713 7.87577 14.672C7.8015 14.9828 7.64264 15.267 7.41678 15.493C7.19092 15.719 6.90689 15.8782 6.59615 15.9527C6.39538 15.9988 6.16923 15.9988 5.90385 15.9988H3.01923C2.755 15.9988 2.52769 15.9988 2.32692 15.9515C2.01612 15.8773 1.73194 15.7184 1.50588 15.4926C1.27982 15.2667 1.1207 14.9827 1.04615 14.672C1 14.4713 1 14.2451 1 13.9798V11.0954C1 10.8312 1 10.6039 1.04731 10.4031C1.12157 10.0923 1.28044 9.80819 1.5063 9.58214C1.73215 9.3561 2.01619 9.19699 2.32692 9.12245C2.52769 9.0763 2.75385 9.0763 3.01923 9.0763ZM3.07692 10.2301C2.72154 10.2301 2.64538 10.2335 2.59577 10.2462C2.49212 10.271 2.39736 10.324 2.322 10.3994C2.24664 10.4747 2.19363 10.5695 2.16885 10.6731C2.15846 10.7204 2.15385 10.7966 2.15385 11.1531V13.9221C2.15385 14.2774 2.15731 14.3536 2.17 14.4032C2.19479 14.5068 2.2478 14.6016 2.32316 14.6769C2.39851 14.7523 2.49327 14.8053 2.59692 14.8301C2.64538 14.8416 2.72154 14.8451 3.07692 14.8451H5.84615C6.20154 14.8451 6.27769 14.8405 6.32731 14.8289C6.43096 14.8042 6.52572 14.7511 6.60107 14.6758C6.67643 14.6004 6.72944 14.5057 6.75423 14.402C6.76577 14.3536 6.76923 14.2774 6.76923 13.9221V11.1531C6.76923 10.7977 6.76577 10.7216 6.75308 10.6719C6.72829 10.5683 6.67528 10.4736 6.59992 10.3982C6.52456 10.3229 6.4298 10.2698 6.32615 10.2451C6.27885 10.2347 6.20269 10.2301 5.84615 10.2301H3.07692ZM11.1538 9.0763H11.0962C10.8319 9.0763 10.6046 9.0763 10.4038 9.12361C10.093 9.19787 9.80887 9.35672 9.5828 9.58256C9.35674 9.8084 9.19762 10.0924 9.12308 10.4031C9.07692 10.6039 9.07692 10.83 9.07692 11.0954V13.9798C9.07692 14.244 9.07692 14.4713 9.12423 14.672C9.1985 14.9828 9.35736 15.267 9.58322 15.493C9.80908 15.719 10.0931 15.8782 10.4038 15.9527C10.6046 16 10.8319 16 11.0962 16H13.9808C14.245 16 14.4723 16 14.6731 15.9527C14.9837 15.8782 15.2676 15.7193 15.4934 15.4935C15.7193 15.2677 15.8782 14.9837 15.9527 14.6732C16 14.4724 16 14.2451 16 13.9809V11.0954C16 10.8312 16 10.6039 15.9527 10.4031C15.8784 10.0923 15.7196 9.80819 15.4937 9.58214C15.2678 9.3561 14.9838 9.19699 14.6731 9.12245C14.4723 9.0763 14.2462 9.0763 13.9808 9.0763H11.1538ZM10.6727 10.2462C10.7223 10.2347 10.7996 10.2301 11.1538 10.2301H13.9231C14.2785 10.2301 14.3546 10.2335 14.4042 10.2462C14.5079 10.271 14.6026 10.324 14.678 10.3994C14.7534 10.4747 14.8064 10.5695 14.8312 10.6731C14.8427 10.7216 14.8462 10.7977 14.8462 11.1531V13.9221C14.8462 14.2774 14.8415 14.3536 14.83 14.4032C14.8052 14.5068 14.7522 14.6016 14.6768 14.6769C14.6015 14.7523 14.5067 14.8053 14.4031 14.8301C14.3546 14.8416 14.2785 14.8451 13.9231 14.8451H11.1538C10.7985 14.8451 10.7223 14.8405 10.6727 14.8289C10.569 14.8042 10.4743 14.7511 10.3989 14.6758C10.3236 14.6004 10.2706 14.5057 10.2458 14.402C10.2354 14.3547 10.2308 14.2786 10.2308 13.9221V11.1531C10.2308 10.7977 10.2342 10.7216 10.2469 10.6719C10.2717 10.5683 10.3247 10.4736 10.4001 10.3982C10.4754 10.3229 10.5702 10.2698 10.6738 10.2451L10.6727 10.2462Z" stroke="#185AA6" stroke-width="0.3" mask="url(#path-1-outside-1_299_2)"/>
</svg>
