<svg width="16" height="16" viewBox="0 0 16 16" fill="none" xmlns="http://www.w3.org/2000/svg">
<path fill-rule="evenodd" clip-rule="evenodd" d="M1.7063 0.64493C1.93892 0.549005 2.18724 0.5 2.43733 0.5H5.38285C5.88696 0.499993 6.37645 0.698369 6.74295 1.06136C7.11052 1.42542 7.32503 1.92718 7.32778 2.4593L7.32779 2.46205L7.32779 5.39449C7.32779 5.92843 7.11444 6.4329 6.74651 6.79919C6.37968 7.1644 5.88865 7.36411 5.38285 7.36411H2.43508C1.93097 7.36152 1.44242 7.16062 1.0777 6.79565C0.711909 6.42959 0.499993 5.92662 0.5 5.39449V2.46205C0.5 2.19941 0.552009 1.94026 0.652088 1.69973C0.752122 1.45929 0.897779 1.24316 1.07905 1.0627C1.26026 0.882299 1.47365 0.740868 1.7063 0.64493ZM2.43733 1.5C2.30171 1.5 2.16809 1.52663 2.04436 1.57765C1.92065 1.62867 1.81026 1.70262 1.71872 1.79375C1.62726 1.88482 1.55656 1.99104 1.50899 2.10537C1.46146 2.21961 1.4375 2.34069 1.4375 2.46205V5.39449C1.4375 5.63927 1.53455 5.88163 1.71914 6.06635C1.90459 6.25193 2.16267 6.36243 2.43856 6.36411H5.38285C5.66008 6.36411 5.91999 6.25415 6.10684 6.06814C6.29259 5.88321 6.39029 5.64008 6.39029 5.39449V2.46359C6.3887 2.21921 6.2904 1.97775 6.10504 1.79417C5.9183 1.60921 5.65914 1.5 5.38285 1.5H2.43733ZM9.25705 1.06136C9.62355 0.698369 10.113 0.499993 10.6172 0.5H13.5627C14.0664 0.5 14.5555 0.698915 14.9209 1.0627C15.2874 1.42757 15.5 1.93012 15.5 2.46205V5.39449C15.5 5.92662 15.2881 6.42959 14.9223 6.79565C14.5576 7.16062 14.069 7.36152 13.5649 7.3641L13.5627 7.36411H10.6171C10.1115 7.36385 9.62044 7.16407 9.25371 6.79897C8.88589 6.43279 8.67249 5.92854 8.67221 5.39476V2.4593C8.67496 1.92718 8.88948 1.42542 9.25705 1.06136ZM10.6171 1.5C10.3409 1.5 10.0817 1.60921 9.89496 1.79417C9.7096 1.97775 9.6113 2.21921 9.60971 2.46359V5.39421C9.60984 5.63984 9.70762 5.88297 9.89339 6.06792C10.0802 6.25394 10.3401 6.36397 10.6174 6.36411H13.5614C13.8373 6.36243 14.0954 6.25193 14.2809 6.06635C14.4655 5.88163 14.5625 5.63927 14.5625 5.39449V2.46205C14.5625 2.21847 14.4656 1.97726 14.2813 1.79375C14.0959 1.60916 13.8379 1.5 13.5627 1.5H10.6171ZM2.43485 8.63514L2.43733 8.63513L5.38285 8.63514C5.39282 8.63514 5.40272 8.63547 5.41253 8.63612C5.90782 8.64377 6.38686 8.84275 6.74651 9.20081C7.11444 9.5671 7.32779 10.0716 7.32779 10.6055V13.5407C7.32503 14.0728 7.11052 14.5746 6.74295 14.9386C6.37645 15.3016 5.88696 15.5 5.38285 15.5H2.43733C1.93355 15.5 1.44446 15.3011 1.07905 14.9373C0.71255 14.5724 0.5 14.0699 0.5 13.5379V10.6055C0.499991 10.0734 0.711844 9.57034 1.07757 9.20417C1.44222 8.83908 1.93072 8.63798 2.43485 8.63514ZM5.35684 9.63514H2.43858C2.16266 9.63701 1.90461 9.74764 1.71918 9.93329C1.53456 10.1181 1.4375 10.3606 1.4375 10.6055V13.5379C1.4375 13.7815 1.5344 14.0227 1.71872 14.2062C1.90414 14.3908 2.16212 14.5 2.43733 14.5L5.38286 14.5C5.65914 14.5 5.9183 14.3908 6.10504 14.2058C6.2904 14.0223 6.3887 13.7808 6.39029 13.5364V10.6055C6.39029 10.3599 6.29259 10.1168 6.10684 9.93186C5.91999 9.74585 5.66008 9.63589 5.38285 9.63589C5.37412 9.63589 5.36545 9.63564 5.35684 9.63514ZM9.2567 9.19685C9.62323 8.83364 10.1129 8.63513 10.6171 8.63514H13.5627C13.5726 8.63514 13.5825 8.63547 13.5924 8.63612C14.0856 8.64378 14.5627 8.84196 14.9209 9.19859C15.2874 9.56346 15.5 10.066 15.5 10.5979V13.5304C15.5 14.0625 15.2881 14.5655 14.9223 14.9315C14.5576 15.2965 14.069 15.4974 13.5649 15.5L13.5627 15.5H10.6171C10.1114 15.5 9.62032 15.3003 9.25349 14.9351C8.88556 14.5688 8.67221 14.0643 8.67221 13.5304V10.5979L8.67222 10.5955C8.6747 10.0632 8.88908 9.56113 9.2567 9.19685ZM13.5367 9.63514H10.6171C10.3408 9.63513 10.0815 9.74442 9.89478 9.92948C9.7094 10.1132 9.61116 10.3548 9.60971 10.5992V13.5304C9.60971 13.776 9.70741 14.0191 9.89316 14.204C10.08 14.39 10.3399 14.5 10.6171 14.5H13.5616C13.8374 14.4983 14.0954 14.3878 14.2809 14.2022C14.4655 14.0175 14.5625 13.7752 14.5625 13.5304V10.5979C14.5625 10.3544 14.4656 10.1132 14.2813 9.92965C14.0959 9.74505 13.8379 9.63589 13.5627 9.63589C13.5539 9.63589 13.5453 9.63564 13.5367 9.63514Z" fill="#0089ab"/>
</svg>
