<svg width="24" height="25" viewBox="0 0 24 25" fill="none" xmlns="http://www.w3.org/2000/svg">
<g clip-path="url(#clip0_246_141)">
<path d="M4.9346 0.0162988C4.98633 0.0160864 5.03807 0.015874 5.09138 0.0156551C5.26398 0.0150638 5.43658 0.0151383 5.60918 0.0152159C5.73325 0.0149352 5.85733 0.0146188 5.9814 0.0142617C6.28303 0.0134851 6.58466 0.0132254 6.88629 0.0131731C7.13169 0.0131284 7.37708 0.0129352 7.62248 0.0126386C8.31939 0.0118135 9.01629 0.0113805 9.7132 0.0114509C9.76948 0.0114565 9.76948 0.0114565 9.8269 0.0114622C9.86446 0.011466 9.90203 0.0114699 9.94074 0.0114738C10.5491 0.0115119 11.1574 0.0106154 11.7657 0.00929298C12.3914 0.00794348 13.0172 0.00729907 13.6429 0.0073799C13.9938 0.00741093 14.3446 0.00715763 14.6954 0.00614446C14.9943 0.00528702 15.2931 0.00509005 15.5919 0.00572347C15.7441 0.00602769 15.8962 0.00593814 16.0484 0.0052216C16.6645 0.00250975 17.2283 0.00487125 17.8126 0.216334C17.8627 0.233575 17.9128 0.250816 17.9644 0.268579C18.9047 0.605115 19.5633 1.37156 19.9888 2.24734C20.177 2.68644 20.3018 3.15265 20.3039 3.63206C20.3044 3.71288 20.3044 3.71288 20.3049 3.79533C20.305 3.85378 20.3051 3.91223 20.3053 3.97245C20.3055 4.03515 20.3059 4.09785 20.3062 4.16055C20.3072 4.36571 20.3077 4.57087 20.3081 4.77603C20.3083 4.84686 20.3085 4.91769 20.3087 4.98852C20.3096 5.32125 20.3103 5.65397 20.3107 5.9867C20.3111 6.37004 20.3124 6.75337 20.3142 7.1367C20.3157 7.43356 20.3164 7.73043 20.3165 8.02729C20.3166 8.20436 20.317 8.38141 20.3182 8.55848C20.3193 8.72508 20.3195 8.89166 20.319 9.05827C20.319 9.1481 20.3199 9.23793 20.3208 9.32776C20.3187 9.67764 20.2951 9.9597 20.0416 10.2248C19.7604 10.4713 19.5481 10.5032 19.1813 10.4966C18.911 10.4702 18.7516 10.3578 18.5714 10.1568C18.4195 9.94417 18.3634 9.78024 18.363 9.51953C18.3627 9.46796 18.3623 9.41639 18.362 9.36325C18.3621 9.30712 18.3622 9.25099 18.3624 9.19316C18.362 9.10185 18.3616 9.01054 18.3612 8.91923C18.3609 8.82127 18.3608 8.72331 18.3608 8.62535C18.3607 8.42059 18.3599 8.21583 18.3589 8.01108C18.3566 7.50225 18.3551 6.99342 18.3541 6.48459C18.3534 6.08951 18.3523 5.69444 18.3502 5.29937C18.3492 5.09634 18.3488 4.89333 18.3489 4.6903C18.3488 4.53335 18.3478 4.37641 18.347 4.21947C18.3472 4.164 18.3474 4.10853 18.3476 4.05138C18.3433 3.5457 18.2755 3.10463 17.9675 2.6932C17.9063 2.60696 17.9063 2.60696 17.8595 2.46633C17.7726 2.41533 17.7726 2.41533 17.672 2.37258C17.613 2.33506 17.5544 2.29695 17.4962 2.25833C17.0266 1.96408 16.5596 1.94353 16.0171 1.94444C15.9703 1.94434 15.9234 1.94423 15.8751 1.94412C15.7191 1.94382 15.563 1.94386 15.4069 1.9439C15.2946 1.94376 15.1823 1.9436 15.07 1.94342C14.7972 1.94305 14.5244 1.9429 14.2515 1.94288C14.0296 1.94286 13.8077 1.94276 13.5858 1.94261C12.9556 1.9422 12.3255 1.94198 11.6953 1.94202C11.6444 1.94202 11.6444 1.94202 11.5925 1.94202C11.5416 1.94203 11.5416 1.94203 11.4896 1.94203C10.9394 1.94205 10.3892 1.9416 9.83897 1.94094C9.27303 1.94026 8.70709 1.93994 8.14115 1.93998C7.82382 1.94 7.50648 1.93987 7.18915 1.93936C6.89062 1.93891 6.5921 1.93891 6.29357 1.93925C6.18428 1.9393 6.07499 1.93919 5.96569 1.9389C5.02805 1.91117 5.02805 1.91117 4.14559 2.18215C4.10009 2.20578 4.05459 2.22941 4.00771 2.25375C3.90424 2.31739 3.83421 2.38067 3.75009 2.46633C3.71915 2.46633 3.68821 2.46633 3.65634 2.46633C3.64322 2.49389 3.63011 2.52144 3.6166 2.54983C3.56659 2.64613 3.51066 2.72934 3.44833 2.8179C3.16929 3.26784 3.16709 3.78185 3.16973 4.29583C3.16957 4.36552 3.16934 4.43521 3.16906 4.5049C3.16848 4.69495 3.16877 4.88499 3.1692 5.07504C3.16952 5.28056 3.16903 5.48609 3.16864 5.69161C3.16802 6.09366 3.16815 6.4957 3.16856 6.89775C3.16888 7.22462 3.16892 7.5515 3.16877 7.87837C3.16875 7.92497 3.16872 7.97156 3.1687 8.01957C3.16866 8.11424 3.16861 8.20891 3.16857 8.30358C3.16816 9.19044 3.16863 10.0773 3.16938 10.9642C3.17001 11.7245 3.1699 12.4847 3.16925 13.245C3.1685 14.1288 3.1682 15.0126 3.16863 15.8964C3.16868 15.9907 3.16872 16.085 3.16877 16.1793C3.16879 16.2257 3.16881 16.2721 3.16883 16.3199C3.16895 16.6462 3.16875 16.9725 3.16842 17.2989C3.16802 17.6968 3.16813 18.0947 3.16888 18.4926C3.16925 18.6954 3.1694 18.8983 3.16893 19.1011C3.16851 19.2871 3.16874 19.4731 3.16949 19.6591C3.16964 19.7261 3.16957 19.7931 3.16923 19.86C3.16659 20.4165 3.20695 20.9085 3.5483 21.3645C3.60946 21.4507 3.60946 21.4507 3.65634 21.5913C3.74319 21.6423 3.74319 21.6423 3.84384 21.6851C3.90279 21.7226 3.96138 21.7607 4.01962 21.7993C4.54037 22.1257 5.08638 22.1133 5.68257 22.1134C5.872 22.1136 6.06142 22.1151 6.25085 22.1163C6.49073 22.1177 6.7306 22.1188 6.97049 22.1187C7.16551 22.1187 7.36049 22.1198 7.5555 22.1216C7.62937 22.1221 7.70324 22.1222 7.77711 22.1218C8.52445 22.1185 8.52445 22.1185 8.81258 22.3882C9.05079 22.6389 9.11658 22.8655 9.10848 23.2056C9.07669 23.4663 8.96271 23.664 8.76571 23.8355C8.52145 24.0085 8.35647 24.0428 8.0574 24.0424C8.01918 24.0428 7.98097 24.0431 7.94159 24.0434C7.81511 24.0443 7.68864 24.0445 7.56216 24.0446C7.47373 24.0449 7.3853 24.0452 7.29687 24.0455C7.11116 24.0461 6.92544 24.0463 6.73973 24.0462C6.50354 24.0462 6.26738 24.0475 6.0312 24.0491C5.84825 24.0501 5.66531 24.0503 5.48235 24.0503C5.39541 24.0504 5.30846 24.0508 5.22152 24.0515C4.08246 24.0602 3.11907 23.7303 2.27664 22.9346C1.63184 22.2672 1.21372 21.3306 1.21268 20.3971C1.21249 20.3365 1.21231 20.2759 1.21213 20.2135C1.21217 20.1466 1.21221 20.0798 1.21225 20.0129C1.21213 19.9416 1.21199 19.8702 1.21183 19.7989C1.21145 19.6031 1.21137 19.4072 1.21133 19.2114C1.21125 19.0001 1.21089 18.7888 1.21058 18.5775C1.20994 18.1156 1.20966 17.6536 1.20945 17.1916C1.20932 16.903 1.20912 16.6144 1.20891 16.3258C1.20834 15.5264 1.20786 14.727 1.2077 13.9276C1.20769 13.8764 1.20768 13.8253 1.20767 13.7726C1.20766 13.7213 1.20765 13.67 1.20764 13.6172C1.20762 13.5133 1.2076 13.4094 1.20757 13.3055C1.20756 13.254 1.20755 13.2024 1.20754 13.1493C1.20736 12.3147 1.20654 11.4801 1.20545 10.6454C1.20434 9.78805 1.20375 8.93068 1.2037 8.07331C1.20365 7.59212 1.20339 7.11093 1.20253 6.62974C1.20181 6.21989 1.20157 5.81005 1.20196 5.4002C1.20214 5.19126 1.2021 4.98232 1.20144 4.77338C1.20084 4.58172 1.2009 4.39007 1.20147 4.19841C1.20156 4.12945 1.20142 4.06049 1.20101 3.99153C1.19452 2.82868 1.58251 1.83287 2.39968 1.00259C3.10309 0.350771 3.9811 0.0133978 4.9346 0.0162988Z" fill="#185AA6"/>
<path d="M21.7612 13.3704C22.3429 13.8422 22.6713 14.5333 22.7811 15.2631C22.8498 15.9872 22.6755 16.7805 22.2058 17.3514C22.1361 17.4292 22.065 17.5052 21.993 17.5808C21.9649 17.6106 21.9368 17.6404 21.9079 17.671C21.4555 18.1474 20.9898 18.6111 20.526 19.0763C20.4744 19.1281 20.4229 19.1798 20.3713 19.2316C20.1295 19.4743 19.8875 19.717 19.6454 19.9594C19.3679 20.2374 19.0908 20.5158 18.8139 20.7945C18.5983 21.0116 18.3823 21.2283 18.166 21.4447C18.0375 21.5733 17.9091 21.7021 17.7812 21.8312C17.6611 21.9524 17.5405 22.0732 17.4196 22.1936C17.3549 22.2583 17.2906 22.3235 17.2264 22.3886C16.8959 22.7164 16.5556 22.9771 16.0995 23.0989C16.0164 23.1216 16.0164 23.1216 15.9316 23.1449C15.8731 23.1601 15.8146 23.1754 15.7543 23.1911C15.6918 23.2079 15.6293 23.2248 15.5669 23.2418C15.4034 23.286 15.2397 23.3294 15.0759 23.3726C14.9119 23.416 14.7481 23.4601 14.5842 23.5043C14.3943 23.5554 14.2043 23.6064 14.0142 23.6569C13.7528 23.7263 13.4915 23.7961 13.2313 23.8702C13.1731 23.8868 13.1731 23.8868 13.1137 23.9037C13.0458 23.9232 12.978 23.9429 12.9103 23.963C12.5892 24.0553 12.2542 24.1055 11.9343 23.9872C11.6695 23.839 11.4867 23.6143 11.3905 23.3256C11.3638 22.9573 11.4473 22.654 11.5546 22.3032C11.5729 22.2422 11.5911 22.1813 11.6094 22.1203C11.6515 21.9802 11.694 21.8402 11.7367 21.7003C11.8086 21.464 11.8788 21.2271 11.9488 20.9903C12.0142 20.77 12.0803 20.5499 12.1465 20.3299C12.1795 20.2201 12.2122 20.1103 12.2446 20.0004C12.2909 19.844 12.3382 19.6879 12.3857 19.5319C12.4061 19.4617 12.4061 19.4617 12.4269 19.3901C12.4406 19.346 12.4542 19.3019 12.4683 19.2564C12.4797 19.2183 12.4912 19.1802 12.5029 19.141C12.6903 18.738 13.0331 18.4344 13.3428 18.1246C13.393 18.074 13.4433 18.0234 13.4935 17.9727C13.6292 17.836 13.7651 17.6997 13.9012 17.5634C13.9865 17.4779 14.0717 17.3924 14.1569 17.3069C14.4549 17.0077 14.7533 16.7087 15.0518 16.41C15.3288 16.1329 15.6051 15.8552 15.8811 15.5772C16.1192 15.3375 16.3577 15.0982 16.5966 14.8593C16.7388 14.717 16.8808 14.5746 17.0224 14.4318C17.1557 14.2971 17.2897 14.1631 17.4241 14.0295C17.4728 13.9808 17.5214 13.932 17.5697 13.8829C18.7411 12.6943 20.348 12.3486 21.7612 13.3704ZM19.1718 15.0756C19.2469 15.2634 19.379 15.3886 19.5208 15.5275C19.5456 15.5523 19.5704 15.577 19.596 15.6024C19.6751 15.681 19.7545 15.7592 19.8339 15.8374C19.8877 15.8907 19.9414 15.944 19.9952 15.9974C20.1267 16.1279 20.2585 16.2581 20.3905 16.3881C20.4435 16.3449 20.4963 16.3012 20.5489 16.2574C20.5783 16.2331 20.6077 16.2089 20.638 16.1839C20.8139 16.016 20.8537 15.8286 20.8798 15.5942C20.8678 15.3371 20.7681 15.1297 20.5912 14.9444C20.3397 14.7211 20.1485 14.6866 19.815 14.6906C19.524 14.7135 19.3626 14.868 19.1718 15.0756ZM17.2968 16.9038C17.2717 16.9268 17.2466 16.9499 17.2207 16.9736C16.8464 17.3183 16.4773 17.6682 16.1115 18.022C15.9398 18.1879 15.7672 18.3525 15.5916 18.5144C14.5739 19.4547 14.0225 20.26 13.7811 21.6381C14.2625 21.7986 15.0469 21.486 15.4888 21.2817C16.2011 20.8947 16.7659 20.1832 17.3114 19.5978C17.5043 19.3922 17.7009 19.1902 17.8972 18.9879C18.2787 18.5934 18.6562 18.1952 19.0311 17.7944C18.9459 17.6104 18.8268 17.4835 18.6838 17.3425C18.6591 17.3178 18.6343 17.2931 18.6088 17.2676C18.5568 17.2157 18.5045 17.1638 18.4522 17.1121C18.3718 17.0325 18.2918 16.9526 18.2118 16.8726C18.1612 16.8222 18.1105 16.7718 18.0598 16.7214C18.0236 16.6854 18.0236 16.6854 17.9868 16.6486C17.6914 16.3572 17.5579 16.6636 17.2968 16.9038Z" fill="#185AA6"/>
<path d="M6.02916 9.39655C6.07093 9.39634 6.11271 9.39614 6.15575 9.39593C6.29631 9.3953 6.43686 9.39501 6.57741 9.39472C6.67796 9.39435 6.77851 9.39396 6.87906 9.39356C7.20978 9.39233 7.54049 9.39161 7.8712 9.39095C7.985 9.39069 8.0988 9.39044 8.21259 9.39019C8.68592 9.38918 9.15925 9.3883 9.63258 9.38777C10.3112 9.38701 10.9897 9.38545 11.6683 9.38278C12.1453 9.38097 12.6223 9.38005 13.0993 9.3798C13.3843 9.37963 13.6692 9.37907 13.9542 9.37755C14.2223 9.37614 14.4904 9.37584 14.7586 9.3764C14.8569 9.37641 14.9552 9.37602 15.0536 9.37519C15.188 9.37413 15.3224 9.37452 15.4568 9.37526C15.5149 9.37429 15.5149 9.37429 15.5742 9.37329C15.858 9.37715 16.044 9.46199 16.2657 9.63814C16.5039 9.88888 16.5697 10.1154 16.5616 10.4555C16.5298 10.7162 16.4158 10.9139 16.2188 11.0854C15.9652 11.265 15.7912 11.2924 15.4806 11.2913C15.4388 11.2915 15.3969 11.2917 15.3538 11.2919C15.2133 11.2925 15.0728 11.2925 14.9322 11.2924C14.8316 11.2927 14.731 11.293 14.6303 11.2933C14.3567 11.2942 14.0831 11.2944 13.8095 11.2944C13.5812 11.2945 13.3529 11.2949 13.1246 11.2952C12.5859 11.296 12.0473 11.2962 11.5086 11.2961C10.9528 11.2961 10.397 11.2971 9.84119 11.2985C9.36416 11.2998 8.88712 11.3003 8.41009 11.3002C8.12511 11.3002 7.84014 11.3005 7.55516 11.3015C7.28711 11.3024 7.01906 11.3024 6.75101 11.3017C6.65265 11.3016 6.5543 11.3018 6.45595 11.3024C6.3216 11.3031 6.18731 11.3027 6.05297 11.3019C6.01411 11.3024 5.97525 11.3029 5.93521 11.3034C5.63825 11.2999 5.44221 11.2213 5.21691 11.0197C4.98476 10.7235 4.92391 10.479 4.9688 10.1069C5.05436 9.8164 5.2355 9.61755 5.48442 9.45064C5.66656 9.38992 5.8393 9.39666 6.02916 9.39655Z" fill="#185AA6"/>
<path d="M6.02916 5.64655C6.07093 5.64634 6.11271 5.64614 6.15575 5.64593C6.29631 5.6453 6.43686 5.64501 6.57741 5.64472C6.67796 5.64435 6.77851 5.64396 6.87906 5.64356C7.20978 5.64233 7.54049 5.64161 7.8712 5.64095C7.985 5.64069 8.0988 5.64044 8.21259 5.64019C8.68592 5.63918 9.15925 5.6383 9.63258 5.63777C10.3112 5.63701 10.9897 5.63545 11.6683 5.63278C12.1453 5.63097 12.6223 5.63005 13.0993 5.6298C13.3843 5.62963 13.6692 5.62907 13.9542 5.62755C14.2223 5.62614 14.4904 5.62584 14.7586 5.6264C14.8569 5.62641 14.9552 5.62602 15.0536 5.62519C15.188 5.62413 15.3224 5.62452 15.4568 5.62526C15.5149 5.62429 15.5149 5.62429 15.5742 5.62329C15.858 5.62715 16.044 5.71199 16.2657 5.88814C16.5039 6.13888 16.5697 6.36543 16.5616 6.70552C16.5298 6.96624 16.4158 7.1639 16.2188 7.3354C15.9652 7.51505 15.7912 7.54245 15.4806 7.5413C15.4388 7.54151 15.3969 7.54172 15.3538 7.54194C15.2133 7.54254 15.0728 7.54246 14.9322 7.54238C14.8316 7.54266 14.731 7.54298 14.6303 7.54334C14.3567 7.54417 14.0831 7.54438 13.8095 7.54444C13.5812 7.54453 13.3529 7.54488 13.1246 7.54521C12.5859 7.54597 12.0473 7.5462 11.5086 7.54614C10.9528 7.54608 10.397 7.54707 9.84119 7.54855C9.36416 7.54977 8.88712 7.55028 8.41009 7.55022C8.12511 7.55019 7.84014 7.55046 7.55516 7.55145C7.28711 7.55236 7.01906 7.55237 6.75101 7.55169C6.65265 7.55159 6.5543 7.55181 6.45595 7.55238C6.3216 7.5531 6.18731 7.55266 6.05297 7.55194C6.01411 7.55242 5.97525 7.55291 5.93521 7.5534C5.63825 7.54988 5.44221 7.47125 5.21691 7.26967C4.98476 6.97353 4.92391 6.72904 4.9688 6.35689C5.05436 6.0664 5.2355 5.86755 5.48442 5.70064C5.66656 5.63992 5.8393 5.64666 6.02916 5.64655Z" fill="#185AA6"/>
<path d="M5.88533 13.147C5.93948 13.1466 5.99363 13.1463 6.04941 13.1459C6.10888 13.1458 6.16835 13.1457 6.22962 13.1456C6.29284 13.1453 6.35605 13.145 6.41927 13.1446C6.62694 13.1436 6.83461 13.1432 7.04228 13.1427C7.11383 13.1425 7.18537 13.1423 7.25692 13.1421C7.59307 13.1412 7.92922 13.1405 8.26538 13.1402C8.65315 13.1397 9.04091 13.1385 9.42868 13.1366C9.72857 13.1352 10.0284 13.1345 10.3283 13.1343C10.5074 13.1342 10.6864 13.1338 10.8654 13.1326C11.0339 13.1315 11.2024 13.1313 11.371 13.1318C11.462 13.1318 11.553 13.1309 11.644 13.13C12.0069 13.1322 12.2262 13.1662 12.5019 13.4129C12.7341 13.7091 12.7949 13.9536 12.75 14.3257C12.6645 14.6162 12.4833 14.8151 12.2344 14.982C12.0884 15.0306 11.9866 15.0351 11.8335 15.0358C11.7794 15.0361 11.7252 15.0364 11.6694 15.0368C11.61 15.0369 11.5505 15.037 11.4892 15.0372C11.426 15.0374 11.3628 15.0378 11.2996 15.0381C11.0919 15.0391 10.8842 15.0396 10.6766 15.04C10.605 15.0402 10.5335 15.0404 10.4619 15.0406C10.1258 15.0415 9.78962 15.0422 9.45347 15.0426C9.06569 15.043 8.67793 15.0442 8.29017 15.0461C7.99028 15.0476 7.6904 15.0482 7.39051 15.0484C7.21148 15.0485 7.03246 15.0489 6.85343 15.0501C6.6849 15.0512 6.5164 15.0514 6.34787 15.0509C6.25686 15.0509 6.16584 15.0518 6.07483 15.0527C5.71195 15.0505 5.49269 15.0165 5.21691 14.7698C4.98476 14.4736 4.92391 14.2291 4.9688 13.857C5.05436 13.5665 5.2355 13.3676 5.48442 13.2007C5.6304 13.1521 5.7322 13.1476 5.88533 13.147Z" fill="#185AA6"/>
</g>
<defs>
<clipPath id="clip0_246_141">
<rect width="24" height="24" fill="white" transform="translate(0 0.0288086)"/>
</clipPath>
</defs>
</svg>
