<svg width="16" height="16" viewBox="0 0 16 16" fill="none" xmlns="http://www.w3.org/2000/svg">
<path d="M6.30393 6.74158C5.62527 6.74158 4.96185 6.54388 4.39756 6.1735C3.83328 5.80311 3.39347 5.27666 3.13376 4.66073C2.87405 4.0448 2.80609 3.36705 2.93849 2.71318C3.07089 2.05931 3.3977 1.4587 3.87758 0.987282C4.35747 0.515869 4.96888 0.194833 5.6345 0.0647702C6.30012 -0.0652923 6.99005 0.0014605 7.61705 0.256587C8.24405 0.511714 8.77996 0.943757 9.157 1.49808C9.53405 2.0524 9.73529 2.70411 9.73529 3.37079C9.73529 4.26478 9.37378 5.12215 8.73027 5.75429C8.08676 6.38644 7.21398 6.74158 6.30393 6.74158ZM6.30393 1.00161C5.81917 1.00161 5.3453 1.14282 4.94224 1.40738C4.53918 1.67194 4.22503 2.04797 4.03952 2.48792C3.85401 2.92787 3.80547 3.41198 3.90005 3.87903C3.99462 4.34608 4.22805 4.77509 4.57083 5.11182C4.9136 5.44854 5.35032 5.67785 5.82577 5.77075C6.30121 5.86366 6.79402 5.81597 7.24187 5.63374C7.68973 5.45151 8.07252 5.14291 8.34184 4.74696C8.61116 4.35102 8.7549 3.88551 8.7549 3.40931C8.7549 3.09313 8.69151 2.78004 8.56833 2.48792C8.44516 2.19581 8.26462 1.93038 8.03703 1.70681C7.80944 1.48323 7.53924 1.30588 7.24187 1.18488C6.94451 1.06388 6.62579 1.00161 6.30393 1.00161ZM9.03431 7.32424C6.38158 6.73786 3.6064 7.02029 1.13237 8.12841C0.79212 8.28807 0.505046 8.5394 0.304575 8.85313C0.104103 9.16685 -0.00151618 9.53007 1.64457e-05 9.90048V12.7657C1.64444e-05 12.8289 0.0126958 12.8915 0.0373304 12.9499C0.061965 13.0084 0.0980725 13.0614 0.143591 13.1062C0.18911 13.1509 0.243149 13.1863 0.302622 13.2105C0.362095 13.2347 0.425838 13.2472 0.490212 13.2472C0.554585 13.2472 0.618328 13.2347 0.677801 13.2105C0.737275 13.1863 0.791313 13.1509 0.836832 13.1062C0.882351 13.0614 0.918458 13.0084 0.943093 12.9499C0.967728 12.8915 0.980407 12.8289 0.980407 12.7657V9.90048C0.976139 9.71302 1.02767 9.52841 1.12868 9.36931C1.22969 9.2102 1.37578 9.08353 1.54903 9.00482C3.03936 8.32883 4.66242 7.98201 6.30393 7.98877C7.22369 7.98762 8.1403 8.09431 9.03431 8.30658V7.32424ZM9.10294 11.9037H12.1127V12.5779H9.10294V11.9037Z" fill="#185AA6"/>
<path d="M14.5094 9.04329H11.9751V10.0064H14.0192V14.0369H7.07316V10.0064H10.1614V10.2086C10.1614 10.3363 10.213 10.4588 10.305 10.5491C10.3969 10.6394 10.5216 10.6902 10.6516 10.6902C10.7816 10.6902 10.9063 10.6394 10.9982 10.5491C11.0901 10.4588 11.1418 10.3363 11.1418 10.2086V8.33542C11.1418 8.20771 11.0901 8.08523 10.9982 7.99492C10.9063 7.90462 10.7816 7.85388 10.6516 7.85388C10.5216 7.85388 10.3969 7.90462 10.305 7.99492C10.213 8.08523 10.1614 8.20771 10.1614 8.33542V9.04329H6.58297C6.45296 9.04329 6.32828 9.09402 6.23635 9.18433C6.14442 9.27463 6.09277 9.39712 6.09277 9.52483V14.5184C6.09277 14.6461 6.14442 14.7686 6.23635 14.8589C6.32828 14.9492 6.45296 14.9999 6.58297 14.9999H14.5094C14.6394 14.9999 14.7641 14.9492 14.856 14.8589C14.948 14.7686 14.9996 14.6461 14.9996 14.5184V9.52483C14.9996 9.39712 14.948 9.27463 14.856 9.18433C14.7641 9.09402 14.6394 9.04329 14.5094 9.04329Z" fill="#185AA6"/>
</svg>
