<svg width="35" height="35" viewBox="0 0 35 35" fill="none" xmlns="http://www.w3.org/2000/svg">
<mask id="path-1-outside-1_246_155" maskUnits="userSpaceOnUse" x="1.29077" y="4.63623" width="32" height="26" fill="black">
<rect fill="white" x="1.29077" y="4.63623" width="32" height="26"/>
<path d="M12.0816 5.63848C12.2134 5.6381 12.3451 5.63762 12.4768 5.63702C12.8313 5.63579 13.1858 5.63626 13.5403 5.63713C13.9133 5.63783 14.2863 5.63718 14.6593 5.63675C15.2854 5.63625 15.9115 5.6369 16.5376 5.63821C17.2589 5.6397 17.9802 5.63921 18.7016 5.63771C19.3236 5.63646 19.9456 5.6363 20.5677 5.63701C20.938 5.63743 21.3083 5.6375 21.6786 5.63659C22.027 5.63579 22.3753 5.63636 22.7236 5.63793C22.8506 5.63829 22.9776 5.63819 23.1045 5.63758C24.0903 5.63329 25.0425 5.7249 25.9295 6.19937C25.9745 6.22278 26.0195 6.24619 26.0658 6.27032C27.8516 7.23336 28.4883 8.83555 29.0526 10.6641C29.0839 10.7649 29.1152 10.8657 29.1465 10.9665C29.2427 11.2771 29.338 11.5879 29.4329 11.8988C29.4482 11.949 29.4635 11.9992 29.4793 12.0509C29.5225 12.1932 29.5655 12.3356 29.6083 12.478C29.633 12.5601 29.6578 12.6421 29.6832 12.7266C29.7362 12.92 29.7362 12.92 29.7362 13.0567C30.2776 13.0228 30.2776 13.0228 30.83 12.9883C30.83 12.7176 30.83 12.4469 30.83 12.168C30.7031 12.1624 30.5762 12.1567 30.4455 12.1509C30.0767 12.1196 29.8689 12.0814 29.5995 11.8262C29.4436 11.5822 29.4529 11.3642 29.4713 11.0785C29.5684 10.8496 29.728 10.7125 29.9413 10.5957C30.1441 10.5497 30.3365 10.55 30.5437 10.5573C30.5984 10.5585 30.6531 10.5597 30.7095 10.561C31.2775 10.5842 31.6514 10.7076 32.0519 11.1212C32.5143 11.707 32.5265 12.3294 32.4706 13.0567C32.3949 13.5315 32.2295 13.908 31.8554 14.2188C31.3791 14.5457 30.9213 14.6182 30.3515 14.6289C30.3937 14.6745 30.4359 14.7201 30.4794 14.767C31.9011 16.3142 32.7239 17.6691 32.712 19.8045C32.7122 19.9239 32.7125 20.0433 32.7128 20.1627C32.7132 20.4108 32.7126 20.6588 32.7113 20.9069C32.7098 21.2231 32.7107 21.5393 32.7123 21.8556C32.7133 22.1013 32.713 22.347 32.7123 22.5928C32.7121 22.7094 32.7123 22.826 32.713 22.9425C32.7161 23.6805 32.7099 24.4026 32.1715 24.9726C32.1343 25.0132 32.0972 25.0538 32.0588 25.0957C31.9237 25.2246 31.9237 25.2246 31.7058 25.3464C31.537 25.4855 31.5144 25.5612 31.4787 25.7813C31.4675 26.0564 31.4663 26.3294 31.4708 26.6046C31.4808 27.4548 31.4389 28.1498 30.8292 28.7961C30.2522 29.3051 29.6173 29.4158 28.874 29.4151C28.805 29.4154 28.736 29.4157 28.6649 29.416C28.5193 29.4164 28.3738 29.4164 28.2283 29.4161C28.0073 29.4159 27.7864 29.4175 27.5654 29.4193C27.4234 29.4194 27.2814 29.4195 27.1394 29.4194C27.0415 29.4203 27.0415 29.4203 26.9417 29.4213C26.2514 29.4166 25.6639 29.2642 25.1562 28.7793C24.3489 27.8787 24.5409 27.1805 24.5409 25.8399C19.8938 25.8399 15.2468 25.8399 10.4589 25.8399C10.4589 26.449 10.4589 27.058 10.4589 27.6856C10.1456 28.4688 9.88336 28.9106 9.11867 29.2664C8.84417 29.3667 8.58158 29.4031 8.29029 29.4056C8.2282 29.4062 8.16611 29.4069 8.10214 29.4076C8.03577 29.4079 7.9694 29.4081 7.90102 29.4084C7.83181 29.4088 7.7626 29.4092 7.69129 29.4096C7.54495 29.4103 7.3986 29.4107 7.25225 29.411C7.03007 29.4116 6.80794 29.4138 6.58577 29.4159C6.44313 29.4164 6.30049 29.4167 6.15785 29.417C6.09218 29.4178 6.0265 29.4187 5.95883 29.4195C5.22115 29.4172 4.63109 29.2365 4.10146 28.711C3.71996 28.2412 3.534 27.8161 3.55032 27.2036C3.55093 27.1112 3.55137 27.0187 3.55165 26.9263C3.55262 26.7826 3.55457 26.6393 3.5595 26.4957C3.58451 25.8986 3.58451 25.8986 3.33669 25.3724C3.15773 25.2087 3.15773 25.2087 2.9698 25.076C2.60915 24.8067 2.445 24.4174 2.32412 23.9942C2.31097 23.8146 2.30403 23.6423 2.30426 23.4629C2.3038 23.4113 2.30334 23.3597 2.30287 23.3065C2.30157 23.1364 2.3013 22.9663 2.30116 22.7963C2.30072 22.6769 2.30026 22.5575 2.29978 22.4381C2.29896 22.1876 2.2987 21.9372 2.29879 21.6868C2.2988 21.3689 2.29694 21.051 2.29458 20.7331C2.29304 20.4862 2.29278 20.2393 2.29285 19.9923C2.29269 19.8753 2.2921 19.7583 2.29103 19.6413C2.27617 17.8463 2.90144 16.5332 4.1279 15.2322C4.30916 15.0363 4.47919 14.8353 4.64834 14.6289C4.59705 14.628 4.54577 14.627 4.49293 14.626C3.86837 14.5969 3.35053 14.4626 2.90945 13.9966C2.46717 13.409 2.47791 12.7364 2.5292 12.0313C2.61443 11.4907 2.9061 11.1023 3.33749 10.7744C3.69017 10.5769 4.06074 10.5662 4.45608 10.5573C4.53529 10.5545 4.53529 10.5545 4.61611 10.5517C4.89231 10.5536 5.07533 10.5798 5.29668 10.7522C5.49913 10.9704 5.534 11.0638 5.54849 11.3482C5.52972 11.5709 5.45883 11.7127 5.33193 11.8946C5.07431 12.0829 4.87488 12.1293 4.55862 12.1466C4.43032 12.1537 4.30201 12.1607 4.16982 12.168C4.16982 12.4387 4.16982 12.7094 4.16982 12.9883C4.53076 13.0109 4.8917 13.0334 5.26357 13.0567C5.28789 12.9529 5.31222 12.8491 5.33727 12.7421C5.49165 12.1259 5.67934 11.5196 5.86672 10.9128C5.90885 10.7758 5.9506 10.6388 5.99196 10.5016C6.52576 8.73156 7.24513 7.26093 8.8997 6.29897C9.93748 5.74526 10.9264 5.63293 12.0816 5.63848ZM8.4081 8.75003C7.92925 9.44715 7.7076 10.2897 7.45802 11.0892C7.42136 11.2059 7.42136 11.2059 7.38397 11.3249C7.30649 11.5717 7.22924 11.8186 7.152 12.0655C7.10075 12.2289 7.04948 12.3923 6.99819 12.5557C6.97312 12.6357 6.94805 12.7156 6.92222 12.798C6.87238 12.9567 6.82248 13.1155 6.7725 13.2742C6.66114 13.6283 6.55071 13.9826 6.44407 14.3382C6.42599 14.3977 6.40791 14.4572 6.38927 14.5185C6.35653 14.6264 6.32433 14.7345 6.29285 14.8428C6.14749 15.3182 5.88416 15.6437 5.53701 15.9961C5.39656 16.1434 5.25729 16.2918 5.11831 16.4405C5.08323 16.4778 5.04814 16.5152 5.012 16.5537C4.00258 17.6464 3.80417 18.7443 3.81948 20.1746C3.82017 20.2867 3.82079 20.3989 3.82135 20.511C3.82284 20.7834 3.8252 21.0558 3.82803 21.3282C4.33648 21.3368 4.84492 21.3428 5.35343 21.3469C5.52636 21.3486 5.69928 21.351 5.8722 21.3539C6.12097 21.3581 6.36968 21.36 6.61848 21.3615C6.69561 21.3633 6.77274 21.3651 6.85221 21.3669C7.30983 21.3725 7.30983 21.3725 7.7024 21.1648C8.01891 20.8092 8.02117 20.49 8.01931 20.0336C8.02041 19.9799 8.02151 19.9262 8.02265 19.8708C8.02293 19.5327 7.99087 19.2903 7.79287 19.0039C7.48257 18.7543 7.27398 18.6966 6.87856 18.6961C6.83156 18.6954 6.78456 18.6948 6.73614 18.6941C6.58706 18.6922 6.43805 18.6919 6.28896 18.692C6.13988 18.6918 5.99086 18.6911 5.84179 18.6893C5.70656 18.6876 5.57131 18.6874 5.43607 18.6874C5.17405 18.6599 5.00908 18.5932 4.78506 18.4571C4.60775 18.2126 4.63927 18.0006 4.67985 17.7137C4.73277 17.505 4.81219 17.4136 4.99014 17.295C5.39651 17.1903 5.81248 17.214 6.22915 17.2138C6.30934 17.2129 6.38953 17.2121 6.47215 17.2112C7.28519 17.2099 8.11891 17.2629 8.75257 17.8298C9.37112 18.4997 9.44804 19.1159 9.45486 19.9994C9.45783 20.1251 9.45783 20.1251 9.46087 20.2532C9.46655 21.0734 9.29543 21.6763 8.72079 22.2737C8.24689 22.6728 7.6906 22.8359 7.07969 22.8461C7.00718 22.8475 6.93467 22.8488 6.85996 22.8502C6.78247 22.8514 6.70499 22.8525 6.62515 22.8537C6.54522 22.8551 6.46529 22.8565 6.38293 22.858C6.12802 22.8625 5.8731 22.8665 5.61819 22.8705C5.4452 22.8735 5.27221 22.8764 5.09922 22.8795C4.67549 22.8868 4.25176 22.8937 3.82803 22.9004C3.82467 23.0207 3.82227 23.1411 3.82028 23.2614C3.81813 23.362 3.81813 23.362 3.81593 23.4645C3.83282 23.7268 3.93075 23.8674 4.10146 24.0625C4.13671 24.1034 4.17196 24.1443 4.20828 24.1864C4.39936 24.3443 4.59066 24.3444 4.82694 24.3442C4.924 24.3443 4.924 24.3443 5.02301 24.3445C5.09387 24.3442 5.16472 24.344 5.23772 24.3437C5.31243 24.3437 5.38713 24.3437 5.4641 24.3438C5.71155 24.3437 5.959 24.3432 6.20645 24.3426C6.37781 24.3425 6.54918 24.3424 6.72054 24.3423C7.12581 24.3421 7.53108 24.3416 7.93635 24.3409C8.44301 24.3401 8.94967 24.3397 9.45633 24.3393C10.3602 24.3386 11.264 24.3374 12.1679 24.336C12.1689 24.257 12.1699 24.178 12.1709 24.0967C12.1749 23.803 12.1801 23.5093 12.1858 23.2157C12.1881 23.0887 12.19 22.9618 12.1916 22.8348C12.1939 22.652 12.1974 22.4693 12.2012 22.2865C12.2017 22.23 12.2021 22.1734 12.2026 22.1152C12.2106 21.7984 12.2354 21.5845 12.4413 21.3282C12.676 21.1717 12.7612 21.1742 13.0373 21.1736C13.1187 21.1731 13.2002 21.1726 13.2841 21.1721C13.3736 21.1723 13.4631 21.1725 13.5553 21.1727C13.6504 21.1724 13.7455 21.172 13.8406 21.1716C14.0991 21.1707 14.3576 21.1706 14.6161 21.1708C14.8318 21.1709 15.0475 21.1706 15.2633 21.1702C15.7723 21.1695 16.2813 21.1694 16.7904 21.1699C17.3155 21.1703 17.8406 21.1694 18.3657 21.168C18.8165 21.1668 19.2673 21.1664 19.7181 21.1666C19.9873 21.1667 20.2566 21.1665 20.5258 21.1656C20.7791 21.1647 21.0324 21.1648 21.2857 21.1657C21.4228 21.166 21.56 21.1652 21.6971 21.1644C21.779 21.1649 21.8608 21.1654 21.9452 21.1659C22.0162 21.1658 22.0872 21.1658 22.1603 21.1658C22.3846 21.1956 22.5136 21.2637 22.6952 21.3965C22.8126 21.6312 22.7803 21.9011 22.7852 22.1597C22.7866 22.2217 22.788 22.2837 22.7895 22.3476C22.794 22.5461 22.798 22.7446 22.802 22.9431C22.805 23.0775 22.808 23.212 22.811 23.3464C22.8183 23.6762 22.8252 24.0061 22.8319 24.336C23.8231 24.3408 24.8143 24.3444 25.8054 24.3466C26.2657 24.3476 26.7259 24.3491 27.1861 24.3514C27.6303 24.3537 28.0744 24.3549 28.5185 24.3554C28.688 24.3558 28.8574 24.3565 29.0269 24.3576C29.2642 24.3591 29.5015 24.3593 29.7388 24.3592C29.844 24.3604 29.844 24.3604 29.9513 24.3615C30.3189 24.3599 30.5821 24.3403 30.8983 24.1309C31.0915 23.9326 31.1678 23.7954 31.1826 23.5175C31.1807 23.4075 31.1807 23.4075 31.1787 23.2954C31.1777 23.2214 31.1767 23.1475 31.1757 23.0713C31.1737 22.9867 31.1737 22.9867 31.1718 22.9004C31.1289 22.9 31.086 22.8996 31.0419 22.8992C30.5927 22.8948 30.1435 22.889 29.6944 22.8825C29.5271 22.8802 29.3598 22.8783 29.1925 22.8767C28.951 22.8744 28.7096 22.8708 28.4681 22.867C28.3942 22.8666 28.3204 22.8662 28.2443 22.8657C27.4306 22.8502 26.725 22.6813 26.1303 22.0999C25.4994 21.3523 25.4983 20.3774 25.5508 19.4503C25.6112 18.7777 25.8566 18.1944 26.3634 17.7401C27.0787 17.1877 27.9185 17.2131 28.7835 17.2095C28.8683 17.2081 28.9531 17.2067 29.0405 17.2052C29.8361 17.2018 29.8361 17.2018 30.2147 17.4317C30.3981 17.7067 30.3985 17.9288 30.3515 18.252C30.207 18.4912 30.1384 18.5737 29.8729 18.6621C29.7053 18.6702 29.5392 18.6748 29.3715 18.6766C29.2709 18.6785 29.1703 18.6804 29.0697 18.6824C28.9116 18.6853 28.7535 18.6878 28.5954 18.6896C28.4425 18.6915 28.2896 18.6946 28.1367 18.6979C28.0663 18.6983 28.0663 18.6983 27.9945 18.6986C27.6983 18.7061 27.5129 18.7581 27.2753 18.9356C26.9954 19.2498 27.0374 19.6271 27.0403 20.0251C27.0389 20.0918 27.0376 20.1586 27.0362 20.2273C27.0364 20.6262 27.0628 20.884 27.3437 21.1914C27.5584 21.3263 27.723 21.3449 27.9744 21.3437C28.0456 21.3437 28.1167 21.3437 28.19 21.3436C28.2664 21.3429 28.3427 21.3422 28.4214 21.3415C28.4999 21.3413 28.5784 21.3411 28.6593 21.3409C28.91 21.3402 29.1608 21.3384 29.4115 21.3367C29.5815 21.336 29.7515 21.3354 29.9215 21.3348C30.3383 21.3333 30.755 21.331 31.1718 21.3282C31.1786 20.9745 31.1835 20.6209 31.1868 20.2671C31.1882 20.1472 31.19 20.0273 31.1924 19.9074C31.2286 18.0409 30.4243 16.9922 29.1851 15.6802C28.8172 15.2285 28.6682 14.7335 28.5026 14.1827C28.4634 14.0551 28.4241 13.9275 28.3849 13.7998C28.3302 13.6213 28.2761 13.4426 28.2219 13.2639C28.0002 12.5332 27.7759 11.8033 27.5487 11.0742C27.5242 10.9954 27.4996 10.9165 27.4743 10.8353C27.4044 10.6126 27.3332 10.3903 27.2614 10.1682C27.2412 10.1036 27.221 10.039 27.2002 9.97247C26.8284 8.83993 26.1103 8.05115 25.0616 7.50274C24.3109 7.14568 23.5595 7.15738 22.7471 7.1579C22.6206 7.15749 22.4941 7.15703 22.3676 7.15651C22.0252 7.15531 21.6828 7.15498 21.3405 7.1549C21.1262 7.1548 20.9118 7.15451 20.6975 7.15414C19.9487 7.15288 19.1998 7.15232 18.451 7.15243C17.7549 7.15251 17.0588 7.15107 16.3627 7.14891C15.7635 7.14712 15.1643 7.14639 14.5651 7.14648C14.2079 7.14651 13.8507 7.14613 13.4935 7.14467C13.1572 7.14334 12.821 7.14335 12.4847 7.14433C12.362 7.14448 12.2393 7.14416 12.1165 7.14333C10.6149 7.13381 9.38091 7.55434 8.4081 8.75003ZM13.6718 22.627C13.6718 23.1909 13.6718 23.7549 13.6718 24.336C16.1983 24.336 18.7249 24.336 21.328 24.336C21.328 23.772 21.328 23.208 21.328 22.627C18.8015 22.627 16.2749 22.627 13.6718 22.627ZM5.0585 25.8399C4.92954 27.1953 4.92954 27.1953 5.26357 27.6856C5.47622 27.8273 5.52691 27.8399 5.76889 27.8432C5.82936 27.8443 5.88983 27.8454 5.95213 27.8465C6.01729 27.8469 6.08244 27.8473 6.14957 27.8477C6.25034 27.8486 6.25034 27.8486 6.35314 27.8495C6.4953 27.8505 6.63747 27.8511 6.77963 27.8514C6.99691 27.8522 7.21406 27.8556 7.43131 27.859C7.56946 27.8597 7.7076 27.8602 7.84574 27.8605C7.91062 27.8618 7.9755 27.8632 8.04235 27.8645C8.3596 27.8624 8.49835 27.8587 8.75514 27.6576C9.20531 27.0513 8.95498 27.0134 8.95498 25.8399C7.66914 25.8399 6.3833 25.8399 5.0585 25.8399ZM26.0448 25.8399C25.9058 27.2174 25.9058 27.2174 26.3183 27.7539C26.4764 27.833 26.5714 27.8326 26.7475 27.8355C26.8079 27.8366 26.8684 27.8377 26.9307 27.8388C27.2074 27.8418 27.4841 27.8447 27.7608 27.8462C27.9067 27.8474 28.0527 27.8492 28.1986 27.8518C28.409 27.8556 28.6193 27.8571 28.8297 27.8581C28.8948 27.8596 28.9599 27.8612 29.0269 27.8628C29.3449 27.8618 29.484 27.8591 29.7416 27.6577C30.1913 27.0509 29.9413 27.0145 29.9413 25.8399C28.6555 25.8399 27.3696 25.8399 26.0448 25.8399Z"/>
</mask>
<path d="M12.0816 5.63848C12.2134 5.6381 12.3451 5.63762 12.4768 5.63702C12.8313 5.63579 13.1858 5.63626 13.5403 5.63713C13.9133 5.63783 14.2863 5.63718 14.6593 5.63675C15.2854 5.63625 15.9115 5.6369 16.5376 5.63821C17.2589 5.6397 17.9802 5.63921 18.7016 5.63771C19.3236 5.63646 19.9456 5.6363 20.5677 5.63701C20.938 5.63743 21.3083 5.6375 21.6786 5.63659C22.027 5.63579 22.3753 5.63636 22.7236 5.63793C22.8506 5.63829 22.9776 5.63819 23.1045 5.63758C24.0903 5.63329 25.0425 5.7249 25.9295 6.19937C25.9745 6.22278 26.0195 6.24619 26.0658 6.27032C27.8516 7.23336 28.4883 8.83555 29.0526 10.6641C29.0839 10.7649 29.1152 10.8657 29.1465 10.9665C29.2427 11.2771 29.338 11.5879 29.4329 11.8988C29.4482 11.949 29.4635 11.9992 29.4793 12.0509C29.5225 12.1932 29.5655 12.3356 29.6083 12.478C29.633 12.5601 29.6578 12.6421 29.6832 12.7266C29.7362 12.92 29.7362 12.92 29.7362 13.0567C30.2776 13.0228 30.2776 13.0228 30.83 12.9883C30.83 12.7176 30.83 12.4469 30.83 12.168C30.7031 12.1624 30.5762 12.1567 30.4455 12.1509C30.0767 12.1196 29.8689 12.0814 29.5995 11.8262C29.4436 11.5822 29.4529 11.3642 29.4713 11.0785C29.5684 10.8496 29.728 10.7125 29.9413 10.5957C30.1441 10.5497 30.3365 10.55 30.5437 10.5573C30.5984 10.5585 30.6531 10.5597 30.7095 10.561C31.2775 10.5842 31.6514 10.7076 32.0519 11.1212C32.5143 11.707 32.5265 12.3294 32.4706 13.0567C32.3949 13.5315 32.2295 13.908 31.8554 14.2188C31.3791 14.5457 30.9213 14.6182 30.3515 14.6289C30.3937 14.6745 30.4359 14.7201 30.4794 14.767C31.9011 16.3142 32.7239 17.6691 32.712 19.8045C32.7122 19.9239 32.7125 20.0433 32.7128 20.1627C32.7132 20.4108 32.7126 20.6588 32.7113 20.9069C32.7098 21.2231 32.7107 21.5393 32.7123 21.8556C32.7133 22.1013 32.713 22.347 32.7123 22.5928C32.7121 22.7094 32.7123 22.826 32.713 22.9425C32.7161 23.6805 32.7099 24.4026 32.1715 24.9726C32.1343 25.0132 32.0972 25.0538 32.0588 25.0957C31.9237 25.2246 31.9237 25.2246 31.7058 25.3464C31.537 25.4855 31.5144 25.5612 31.4787 25.7813C31.4675 26.0564 31.4663 26.3294 31.4708 26.6046C31.4808 27.4548 31.4389 28.1498 30.8292 28.7961C30.2522 29.3051 29.6173 29.4158 28.874 29.4151C28.805 29.4154 28.736 29.4157 28.6649 29.416C28.5193 29.4164 28.3738 29.4164 28.2283 29.4161C28.0073 29.4159 27.7864 29.4175 27.5654 29.4193C27.4234 29.4194 27.2814 29.4195 27.1394 29.4194C27.0415 29.4203 27.0415 29.4203 26.9417 29.4213C26.2514 29.4166 25.6639 29.2642 25.1562 28.7793C24.3489 27.8787 24.5409 27.1805 24.5409 25.8399C19.8938 25.8399 15.2468 25.8399 10.4589 25.8399C10.4589 26.449 10.4589 27.058 10.4589 27.6856C10.1456 28.4688 9.88336 28.9106 9.11867 29.2664C8.84417 29.3667 8.58158 29.4031 8.29029 29.4056C8.2282 29.4062 8.16611 29.4069 8.10214 29.4076C8.03577 29.4079 7.9694 29.4081 7.90102 29.4084C7.83181 29.4088 7.7626 29.4092 7.69129 29.4096C7.54495 29.4103 7.3986 29.4107 7.25225 29.411C7.03007 29.4116 6.80794 29.4138 6.58577 29.4159C6.44313 29.4164 6.30049 29.4167 6.15785 29.417C6.09218 29.4178 6.0265 29.4187 5.95883 29.4195C5.22115 29.4172 4.63109 29.2365 4.10146 28.711C3.71996 28.2412 3.534 27.8161 3.55032 27.2036C3.55093 27.1112 3.55137 27.0187 3.55165 26.9263C3.55262 26.7826 3.55457 26.6393 3.5595 26.4957C3.58451 25.8986 3.58451 25.8986 3.33669 25.3724C3.15773 25.2087 3.15773 25.2087 2.9698 25.076C2.60915 24.8067 2.445 24.4174 2.32412 23.9942C2.31097 23.8146 2.30403 23.6423 2.30426 23.4629C2.3038 23.4113 2.30334 23.3597 2.30287 23.3065C2.30157 23.1364 2.3013 22.9663 2.30116 22.7963C2.30072 22.6769 2.30026 22.5575 2.29978 22.4381C2.29896 22.1876 2.2987 21.9372 2.29879 21.6868C2.2988 21.3689 2.29694 21.051 2.29458 20.7331C2.29304 20.4862 2.29278 20.2393 2.29285 19.9923C2.29269 19.8753 2.2921 19.7583 2.29103 19.6413C2.27617 17.8463 2.90144 16.5332 4.1279 15.2322C4.30916 15.0363 4.47919 14.8353 4.64834 14.6289C4.59705 14.628 4.54577 14.627 4.49293 14.626C3.86837 14.5969 3.35053 14.4626 2.90945 13.9966C2.46717 13.409 2.47791 12.7364 2.5292 12.0313C2.61443 11.4907 2.9061 11.1023 3.33749 10.7744C3.69017 10.5769 4.06074 10.5662 4.45608 10.5573C4.53529 10.5545 4.53529 10.5545 4.61611 10.5517C4.89231 10.5536 5.07533 10.5798 5.29668 10.7522C5.49913 10.9704 5.534 11.0638 5.54849 11.3482C5.52972 11.5709 5.45883 11.7127 5.33193 11.8946C5.07431 12.0829 4.87488 12.1293 4.55862 12.1466C4.43032 12.1537 4.30201 12.1607 4.16982 12.168C4.16982 12.4387 4.16982 12.7094 4.16982 12.9883C4.53076 13.0109 4.8917 13.0334 5.26357 13.0567C5.28789 12.9529 5.31222 12.8491 5.33727 12.7421C5.49165 12.1259 5.67934 11.5196 5.86672 10.9128C5.90885 10.7758 5.9506 10.6388 5.99196 10.5016C6.52576 8.73156 7.24513 7.26093 8.8997 6.29897C9.93748 5.74526 10.9264 5.63293 12.0816 5.63848ZM8.4081 8.75003C7.92925 9.44715 7.7076 10.2897 7.45802 11.0892C7.42136 11.2059 7.42136 11.2059 7.38397 11.3249C7.30649 11.5717 7.22924 11.8186 7.152 12.0655C7.10075 12.2289 7.04948 12.3923 6.99819 12.5557C6.97312 12.6357 6.94805 12.7156 6.92222 12.798C6.87238 12.9567 6.82248 13.1155 6.7725 13.2742C6.66114 13.6283 6.55071 13.9826 6.44407 14.3382C6.42599 14.3977 6.40791 14.4572 6.38927 14.5185C6.35653 14.6264 6.32433 14.7345 6.29285 14.8428C6.14749 15.3182 5.88416 15.6437 5.53701 15.9961C5.39656 16.1434 5.25729 16.2918 5.11831 16.4405C5.08323 16.4778 5.04814 16.5152 5.012 16.5537C4.00258 17.6464 3.80417 18.7443 3.81948 20.1746C3.82017 20.2867 3.82079 20.3989 3.82135 20.511C3.82284 20.7834 3.8252 21.0558 3.82803 21.3282C4.33648 21.3368 4.84492 21.3428 5.35343 21.3469C5.52636 21.3486 5.69928 21.351 5.8722 21.3539C6.12097 21.3581 6.36968 21.36 6.61848 21.3615C6.69561 21.3633 6.77274 21.3651 6.85221 21.3669C7.30983 21.3725 7.30983 21.3725 7.7024 21.1648C8.01891 20.8092 8.02117 20.49 8.01931 20.0336C8.02041 19.9799 8.02151 19.9262 8.02265 19.8708C8.02293 19.5327 7.99087 19.2903 7.79287 19.0039C7.48257 18.7543 7.27398 18.6966 6.87856 18.6961C6.83156 18.6954 6.78456 18.6948 6.73614 18.6941C6.58706 18.6922 6.43805 18.6919 6.28896 18.692C6.13988 18.6918 5.99086 18.6911 5.84179 18.6893C5.70656 18.6876 5.57131 18.6874 5.43607 18.6874C5.17405 18.6599 5.00908 18.5932 4.78506 18.4571C4.60775 18.2126 4.63927 18.0006 4.67985 17.7137C4.73277 17.505 4.81219 17.4136 4.99014 17.295C5.39651 17.1903 5.81248 17.214 6.22915 17.2138C6.30934 17.2129 6.38953 17.2121 6.47215 17.2112C7.28519 17.2099 8.11891 17.2629 8.75257 17.8298C9.37112 18.4997 9.44804 19.1159 9.45486 19.9994C9.45783 20.1251 9.45783 20.1251 9.46087 20.2532C9.46655 21.0734 9.29543 21.6763 8.72079 22.2737C8.24689 22.6728 7.6906 22.8359 7.07969 22.8461C7.00718 22.8475 6.93467 22.8488 6.85996 22.8502C6.78247 22.8514 6.70499 22.8525 6.62515 22.8537C6.54522 22.8551 6.46529 22.8565 6.38293 22.858C6.12802 22.8625 5.8731 22.8665 5.61819 22.8705C5.4452 22.8735 5.27221 22.8764 5.09922 22.8795C4.67549 22.8868 4.25176 22.8937 3.82803 22.9004C3.82467 23.0207 3.82227 23.1411 3.82028 23.2614C3.81813 23.362 3.81813 23.362 3.81593 23.4645C3.83282 23.7268 3.93075 23.8674 4.10146 24.0625C4.13671 24.1034 4.17196 24.1443 4.20828 24.1864C4.39936 24.3443 4.59066 24.3444 4.82694 24.3442C4.924 24.3443 4.924 24.3443 5.02301 24.3445C5.09387 24.3442 5.16472 24.344 5.23772 24.3437C5.31243 24.3437 5.38713 24.3437 5.4641 24.3438C5.71155 24.3437 5.959 24.3432 6.20645 24.3426C6.37781 24.3425 6.54918 24.3424 6.72054 24.3423C7.12581 24.3421 7.53108 24.3416 7.93635 24.3409C8.44301 24.3401 8.94967 24.3397 9.45633 24.3393C10.3602 24.3386 11.264 24.3374 12.1679 24.336C12.1689 24.257 12.1699 24.178 12.1709 24.0967C12.1749 23.803 12.1801 23.5093 12.1858 23.2157C12.1881 23.0887 12.19 22.9618 12.1916 22.8348C12.1939 22.652 12.1974 22.4693 12.2012 22.2865C12.2017 22.23 12.2021 22.1734 12.2026 22.1152C12.2106 21.7984 12.2354 21.5845 12.4413 21.3282C12.676 21.1717 12.7612 21.1742 13.0373 21.1736C13.1187 21.1731 13.2002 21.1726 13.2841 21.1721C13.3736 21.1723 13.4631 21.1725 13.5553 21.1727C13.6504 21.1724 13.7455 21.172 13.8406 21.1716C14.0991 21.1707 14.3576 21.1706 14.6161 21.1708C14.8318 21.1709 15.0475 21.1706 15.2633 21.1702C15.7723 21.1695 16.2813 21.1694 16.7904 21.1699C17.3155 21.1703 17.8406 21.1694 18.3657 21.168C18.8165 21.1668 19.2673 21.1664 19.7181 21.1666C19.9873 21.1667 20.2566 21.1665 20.5258 21.1656C20.7791 21.1647 21.0324 21.1648 21.2857 21.1657C21.4228 21.166 21.56 21.1652 21.6971 21.1644C21.779 21.1649 21.8608 21.1654 21.9452 21.1659C22.0162 21.1658 22.0872 21.1658 22.1603 21.1658C22.3846 21.1956 22.5136 21.2637 22.6952 21.3965C22.8126 21.6312 22.7803 21.9011 22.7852 22.1597C22.7866 22.2217 22.788 22.2837 22.7895 22.3476C22.794 22.5461 22.798 22.7446 22.802 22.9431C22.805 23.0775 22.808 23.212 22.811 23.3464C22.8183 23.6762 22.8252 24.0061 22.8319 24.336C23.8231 24.3408 24.8143 24.3444 25.8054 24.3466C26.2657 24.3476 26.7259 24.3491 27.1861 24.3514C27.6303 24.3537 28.0744 24.3549 28.5185 24.3554C28.688 24.3558 28.8574 24.3565 29.0269 24.3576C29.2642 24.3591 29.5015 24.3593 29.7388 24.3592C29.844 24.3604 29.844 24.3604 29.9513 24.3615C30.3189 24.3599 30.5821 24.3403 30.8983 24.1309C31.0915 23.9326 31.1678 23.7954 31.1826 23.5175C31.1807 23.4075 31.1807 23.4075 31.1787 23.2954C31.1777 23.2214 31.1767 23.1475 31.1757 23.0713C31.1737 22.9867 31.1737 22.9867 31.1718 22.9004C31.1289 22.9 31.086 22.8996 31.0419 22.8992C30.5927 22.8948 30.1435 22.889 29.6944 22.8825C29.5271 22.8802 29.3598 22.8783 29.1925 22.8767C28.951 22.8744 28.7096 22.8708 28.4681 22.867C28.3942 22.8666 28.3204 22.8662 28.2443 22.8657C27.4306 22.8502 26.725 22.6813 26.1303 22.0999C25.4994 21.3523 25.4983 20.3774 25.5508 19.4503C25.6112 18.7777 25.8566 18.1944 26.3634 17.7401C27.0787 17.1877 27.9185 17.2131 28.7835 17.2095C28.8683 17.2081 28.9531 17.2067 29.0405 17.2052C29.8361 17.2018 29.8361 17.2018 30.2147 17.4317C30.3981 17.7067 30.3985 17.9288 30.3515 18.252C30.207 18.4912 30.1384 18.5737 29.8729 18.6621C29.7053 18.6702 29.5392 18.6748 29.3715 18.6766C29.2709 18.6785 29.1703 18.6804 29.0697 18.6824C28.9116 18.6853 28.7535 18.6878 28.5954 18.6896C28.4425 18.6915 28.2896 18.6946 28.1367 18.6979C28.0663 18.6983 28.0663 18.6983 27.9945 18.6986C27.6983 18.7061 27.5129 18.7581 27.2753 18.9356C26.9954 19.2498 27.0374 19.6271 27.0403 20.0251C27.0389 20.0918 27.0376 20.1586 27.0362 20.2273C27.0364 20.6262 27.0628 20.884 27.3437 21.1914C27.5584 21.3263 27.723 21.3449 27.9744 21.3437C28.0456 21.3437 28.1167 21.3437 28.19 21.3436C28.2664 21.3429 28.3427 21.3422 28.4214 21.3415C28.4999 21.3413 28.5784 21.3411 28.6593 21.3409C28.91 21.3402 29.1608 21.3384 29.4115 21.3367C29.5815 21.336 29.7515 21.3354 29.9215 21.3348C30.3383 21.3333 30.755 21.331 31.1718 21.3282C31.1786 20.9745 31.1835 20.6209 31.1868 20.2671C31.1882 20.1472 31.19 20.0273 31.1924 19.9074C31.2286 18.0409 30.4243 16.9922 29.1851 15.6802C28.8172 15.2285 28.6682 14.7335 28.5026 14.1827C28.4634 14.0551 28.4241 13.9275 28.3849 13.7998C28.3302 13.6213 28.2761 13.4426 28.2219 13.2639C28.0002 12.5332 27.7759 11.8033 27.5487 11.0742C27.5242 10.9954 27.4996 10.9165 27.4743 10.8353C27.4044 10.6126 27.3332 10.3903 27.2614 10.1682C27.2412 10.1036 27.221 10.039 27.2002 9.97247C26.8284 8.83993 26.1103 8.05115 25.0616 7.50274C24.3109 7.14568 23.5595 7.15738 22.7471 7.1579C22.6206 7.15749 22.4941 7.15703 22.3676 7.15651C22.0252 7.15531 21.6828 7.15498 21.3405 7.1549C21.1262 7.1548 20.9118 7.15451 20.6975 7.15414C19.9487 7.15288 19.1998 7.15232 18.451 7.15243C17.7549 7.15251 17.0588 7.15107 16.3627 7.14891C15.7635 7.14712 15.1643 7.14639 14.5651 7.14648C14.2079 7.14651 13.8507 7.14613 13.4935 7.14467C13.1572 7.14334 12.821 7.14335 12.4847 7.14433C12.362 7.14448 12.2393 7.14416 12.1165 7.14333C10.6149 7.13381 9.38091 7.55434 8.4081 8.75003ZM13.6718 22.627C13.6718 23.1909 13.6718 23.7549 13.6718 24.336C16.1983 24.336 18.7249 24.336 21.328 24.336C21.328 23.772 21.328 23.208 21.328 22.627C18.8015 22.627 16.2749 22.627 13.6718 22.627ZM5.0585 25.8399C4.92954 27.1953 4.92954 27.1953 5.26357 27.6856C5.47622 27.8273 5.52691 27.8399 5.76889 27.8432C5.82936 27.8443 5.88983 27.8454 5.95213 27.8465C6.01729 27.8469 6.08244 27.8473 6.14957 27.8477C6.25034 27.8486 6.25034 27.8486 6.35314 27.8495C6.4953 27.8505 6.63747 27.8511 6.77963 27.8514C6.99691 27.8522 7.21406 27.8556 7.43131 27.859C7.56946 27.8597 7.7076 27.8602 7.84574 27.8605C7.91062 27.8618 7.9755 27.8632 8.04235 27.8645C8.3596 27.8624 8.49835 27.8587 8.75514 27.6576C9.20531 27.0513 8.95498 27.0134 8.95498 25.8399C7.66914 25.8399 6.3833 25.8399 5.0585 25.8399ZM26.0448 25.8399C25.9058 27.2174 25.9058 27.2174 26.3183 27.7539C26.4764 27.833 26.5714 27.8326 26.7475 27.8355C26.8079 27.8366 26.8684 27.8377 26.9307 27.8388C27.2074 27.8418 27.4841 27.8447 27.7608 27.8462C27.9067 27.8474 28.0527 27.8492 28.1986 27.8518C28.409 27.8556 28.6193 27.8571 28.8297 27.8581C28.8948 27.8596 28.9599 27.8612 29.0269 27.8628C29.3449 27.8618 29.484 27.8591 29.7416 27.6577C30.1913 27.0509 29.9413 27.0145 29.9413 25.8399C28.6555 25.8399 27.3696 25.8399 26.0448 25.8399Z" fill="#185AA6"/>
<path d="M12.0816 5.63848C12.2134 5.6381 12.3451 5.63762 12.4768 5.63702C12.8313 5.63579 13.1858 5.63626 13.5403 5.63713C13.9133 5.63783 14.2863 5.63718 14.6593 5.63675C15.2854 5.63625 15.9115 5.6369 16.5376 5.63821C17.2589 5.6397 17.9802 5.63921 18.7016 5.63771C19.3236 5.63646 19.9456 5.6363 20.5677 5.63701C20.938 5.63743 21.3083 5.6375 21.6786 5.63659C22.027 5.63579 22.3753 5.63636 22.7236 5.63793C22.8506 5.63829 22.9776 5.63819 23.1045 5.63758C24.0903 5.63329 25.0425 5.7249 25.9295 6.19937C25.9745 6.22278 26.0195 6.24619 26.0658 6.27032C27.8516 7.23336 28.4883 8.83555 29.0526 10.6641C29.0839 10.7649 29.1152 10.8657 29.1465 10.9665C29.2427 11.2771 29.338 11.5879 29.4329 11.8988C29.4482 11.949 29.4635 11.9992 29.4793 12.0509C29.5225 12.1932 29.5655 12.3356 29.6083 12.478C29.633 12.5601 29.6578 12.6421 29.6832 12.7266C29.7362 12.92 29.7362 12.92 29.7362 13.0567C30.2776 13.0228 30.2776 13.0228 30.83 12.9883C30.83 12.7176 30.83 12.4469 30.83 12.168C30.7031 12.1624 30.5762 12.1567 30.4455 12.1509C30.0767 12.1196 29.8689 12.0814 29.5995 11.8262C29.4436 11.5822 29.4529 11.3642 29.4713 11.0785C29.5684 10.8496 29.728 10.7125 29.9413 10.5957C30.1441 10.5497 30.3365 10.55 30.5437 10.5573C30.5984 10.5585 30.6531 10.5597 30.7095 10.561C31.2775 10.5842 31.6514 10.7076 32.0519 11.1212C32.5143 11.707 32.5265 12.3294 32.4706 13.0567C32.3949 13.5315 32.2295 13.908 31.8554 14.2188C31.3791 14.5457 30.9213 14.6182 30.3515 14.6289C30.3937 14.6745 30.4359 14.7201 30.4794 14.767C31.9011 16.3142 32.7239 17.6691 32.712 19.8045C32.7122 19.9239 32.7125 20.0433 32.7128 20.1627C32.7132 20.4108 32.7126 20.6588 32.7113 20.9069C32.7098 21.2231 32.7107 21.5393 32.7123 21.8556C32.7133 22.1013 32.713 22.347 32.7123 22.5928C32.7121 22.7094 32.7123 22.826 32.713 22.9425C32.7161 23.6805 32.7099 24.4026 32.1715 24.9726C32.1343 25.0132 32.0972 25.0538 32.0588 25.0957C31.9237 25.2246 31.9237 25.2246 31.7058 25.3464C31.537 25.4855 31.5144 25.5612 31.4787 25.7813C31.4675 26.0564 31.4663 26.3294 31.4708 26.6046C31.4808 27.4548 31.4389 28.1498 30.8292 28.7961C30.2522 29.3051 29.6173 29.4158 28.874 29.4151C28.805 29.4154 28.736 29.4157 28.6649 29.416C28.5193 29.4164 28.3738 29.4164 28.2283 29.4161C28.0073 29.4159 27.7864 29.4175 27.5654 29.4193C27.4234 29.4194 27.2814 29.4195 27.1394 29.4194C27.0415 29.4203 27.0415 29.4203 26.9417 29.4213C26.2514 29.4166 25.6639 29.2642 25.1562 28.7793C24.3489 27.8787 24.5409 27.1805 24.5409 25.8399C19.8938 25.8399 15.2468 25.8399 10.4589 25.8399C10.4589 26.449 10.4589 27.058 10.4589 27.6856C10.1456 28.4688 9.88336 28.9106 9.11867 29.2664C8.84417 29.3667 8.58158 29.4031 8.29029 29.4056C8.2282 29.4062 8.16611 29.4069 8.10214 29.4076C8.03577 29.4079 7.9694 29.4081 7.90102 29.4084C7.83181 29.4088 7.7626 29.4092 7.69129 29.4096C7.54495 29.4103 7.3986 29.4107 7.25225 29.411C7.03007 29.4116 6.80794 29.4138 6.58577 29.4159C6.44313 29.4164 6.30049 29.4167 6.15785 29.417C6.09218 29.4178 6.0265 29.4187 5.95883 29.4195C5.22115 29.4172 4.63109 29.2365 4.10146 28.711C3.71996 28.2412 3.534 27.8161 3.55032 27.2036C3.55093 27.1112 3.55137 27.0187 3.55165 26.9263C3.55262 26.7826 3.55457 26.6393 3.5595 26.4957C3.58451 25.8986 3.58451 25.8986 3.33669 25.3724C3.15773 25.2087 3.15773 25.2087 2.9698 25.076C2.60915 24.8067 2.445 24.4174 2.32412 23.9942C2.31097 23.8146 2.30403 23.6423 2.30426 23.4629C2.3038 23.4113 2.30334 23.3597 2.30287 23.3065C2.30157 23.1364 2.3013 22.9663 2.30116 22.7963C2.30072 22.6769 2.30026 22.5575 2.29978 22.4381C2.29896 22.1876 2.2987 21.9372 2.29879 21.6868C2.2988 21.3689 2.29694 21.051 2.29458 20.7331C2.29304 20.4862 2.29278 20.2393 2.29285 19.9923C2.29269 19.8753 2.2921 19.7583 2.29103 19.6413C2.27617 17.8463 2.90144 16.5332 4.1279 15.2322C4.30916 15.0363 4.47919 14.8353 4.64834 14.6289C4.59705 14.628 4.54577 14.627 4.49293 14.626C3.86837 14.5969 3.35053 14.4626 2.90945 13.9966C2.46717 13.409 2.47791 12.7364 2.5292 12.0313C2.61443 11.4907 2.9061 11.1023 3.33749 10.7744C3.69017 10.5769 4.06074 10.5662 4.45608 10.5573C4.53529 10.5545 4.53529 10.5545 4.61611 10.5517C4.89231 10.5536 5.07533 10.5798 5.29668 10.7522C5.49913 10.9704 5.534 11.0638 5.54849 11.3482C5.52972 11.5709 5.45883 11.7127 5.33193 11.8946C5.07431 12.0829 4.87488 12.1293 4.55862 12.1466C4.43032 12.1537 4.30201 12.1607 4.16982 12.168C4.16982 12.4387 4.16982 12.7094 4.16982 12.9883C4.53076 13.0109 4.8917 13.0334 5.26357 13.0567C5.28789 12.9529 5.31222 12.8491 5.33727 12.7421C5.49165 12.1259 5.67934 11.5196 5.86672 10.9128C5.90885 10.7758 5.9506 10.6388 5.99196 10.5016C6.52576 8.73156 7.24513 7.26093 8.8997 6.29897C9.93748 5.74526 10.9264 5.63293 12.0816 5.63848ZM8.4081 8.75003C7.92925 9.44715 7.7076 10.2897 7.45802 11.0892C7.42136 11.2059 7.42136 11.2059 7.38397 11.3249C7.30649 11.5717 7.22924 11.8186 7.152 12.0655C7.10075 12.2289 7.04948 12.3923 6.99819 12.5557C6.97312 12.6357 6.94805 12.7156 6.92222 12.798C6.87238 12.9567 6.82248 13.1155 6.7725 13.2742C6.66114 13.6283 6.55071 13.9826 6.44407 14.3382C6.42599 14.3977 6.40791 14.4572 6.38927 14.5185C6.35653 14.6264 6.32433 14.7345 6.29285 14.8428C6.14749 15.3182 5.88416 15.6437 5.53701 15.9961C5.39656 16.1434 5.25729 16.2918 5.11831 16.4405C5.08323 16.4778 5.04814 16.5152 5.012 16.5537C4.00258 17.6464 3.80417 18.7443 3.81948 20.1746C3.82017 20.2867 3.82079 20.3989 3.82135 20.511C3.82284 20.7834 3.8252 21.0558 3.82803 21.3282C4.33648 21.3368 4.84492 21.3428 5.35343 21.3469C5.52636 21.3486 5.69928 21.351 5.8722 21.3539C6.12097 21.3581 6.36968 21.36 6.61848 21.3615C6.69561 21.3633 6.77274 21.3651 6.85221 21.3669C7.30983 21.3725 7.30983 21.3725 7.7024 21.1648C8.01891 20.8092 8.02117 20.49 8.01931 20.0336C8.02041 19.9799 8.02151 19.9262 8.02265 19.8708C8.02293 19.5327 7.99087 19.2903 7.79287 19.0039C7.48257 18.7543 7.27398 18.6966 6.87856 18.6961C6.83156 18.6954 6.78456 18.6948 6.73614 18.6941C6.58706 18.6922 6.43805 18.6919 6.28896 18.692C6.13988 18.6918 5.99086 18.6911 5.84179 18.6893C5.70656 18.6876 5.57131 18.6874 5.43607 18.6874C5.17405 18.6599 5.00908 18.5932 4.78506 18.4571C4.60775 18.2126 4.63927 18.0006 4.67985 17.7137C4.73277 17.505 4.81219 17.4136 4.99014 17.295C5.39651 17.1903 5.81248 17.214 6.22915 17.2138C6.30934 17.2129 6.38953 17.2121 6.47215 17.2112C7.28519 17.2099 8.11891 17.2629 8.75257 17.8298C9.37112 18.4997 9.44804 19.1159 9.45486 19.9994C9.45783 20.1251 9.45783 20.1251 9.46087 20.2532C9.46655 21.0734 9.29543 21.6763 8.72079 22.2737C8.24689 22.6728 7.6906 22.8359 7.07969 22.8461C7.00718 22.8475 6.93467 22.8488 6.85996 22.8502C6.78247 22.8514 6.70499 22.8525 6.62515 22.8537C6.54522 22.8551 6.46529 22.8565 6.38293 22.858C6.12802 22.8625 5.8731 22.8665 5.61819 22.8705C5.4452 22.8735 5.27221 22.8764 5.09922 22.8795C4.67549 22.8868 4.25176 22.8937 3.82803 22.9004C3.82467 23.0207 3.82227 23.1411 3.82028 23.2614C3.81813 23.362 3.81813 23.362 3.81593 23.4645C3.83282 23.7268 3.93075 23.8674 4.10146 24.0625C4.13671 24.1034 4.17196 24.1443 4.20828 24.1864C4.39936 24.3443 4.59066 24.3444 4.82694 24.3442C4.924 24.3443 4.924 24.3443 5.02301 24.3445C5.09387 24.3442 5.16472 24.344 5.23772 24.3437C5.31243 24.3437 5.38713 24.3437 5.4641 24.3438C5.71155 24.3437 5.959 24.3432 6.20645 24.3426C6.37781 24.3425 6.54918 24.3424 6.72054 24.3423C7.12581 24.3421 7.53108 24.3416 7.93635 24.3409C8.44301 24.3401 8.94967 24.3397 9.45633 24.3393C10.3602 24.3386 11.264 24.3374 12.1679 24.336C12.1689 24.257 12.1699 24.178 12.1709 24.0967C12.1749 23.803 12.1801 23.5093 12.1858 23.2157C12.1881 23.0887 12.19 22.9618 12.1916 22.8348C12.1939 22.652 12.1974 22.4693 12.2012 22.2865C12.2017 22.23 12.2021 22.1734 12.2026 22.1152C12.2106 21.7984 12.2354 21.5845 12.4413 21.3282C12.676 21.1717 12.7612 21.1742 13.0373 21.1736C13.1187 21.1731 13.2002 21.1726 13.2841 21.1721C13.3736 21.1723 13.4631 21.1725 13.5553 21.1727C13.6504 21.1724 13.7455 21.172 13.8406 21.1716C14.0991 21.1707 14.3576 21.1706 14.6161 21.1708C14.8318 21.1709 15.0475 21.1706 15.2633 21.1702C15.7723 21.1695 16.2813 21.1694 16.7904 21.1699C17.3155 21.1703 17.8406 21.1694 18.3657 21.168C18.8165 21.1668 19.2673 21.1664 19.7181 21.1666C19.9873 21.1667 20.2566 21.1665 20.5258 21.1656C20.7791 21.1647 21.0324 21.1648 21.2857 21.1657C21.4228 21.166 21.56 21.1652 21.6971 21.1644C21.779 21.1649 21.8608 21.1654 21.9452 21.1659C22.0162 21.1658 22.0872 21.1658 22.1603 21.1658C22.3846 21.1956 22.5136 21.2637 22.6952 21.3965C22.8126 21.6312 22.7803 21.9011 22.7852 22.1597C22.7866 22.2217 22.788 22.2837 22.7895 22.3476C22.794 22.5461 22.798 22.7446 22.802 22.9431C22.805 23.0775 22.808 23.212 22.811 23.3464C22.8183 23.6762 22.8252 24.0061 22.8319 24.336C23.8231 24.3408 24.8143 24.3444 25.8054 24.3466C26.2657 24.3476 26.7259 24.3491 27.1861 24.3514C27.6303 24.3537 28.0744 24.3549 28.5185 24.3554C28.688 24.3558 28.8574 24.3565 29.0269 24.3576C29.2642 24.3591 29.5015 24.3593 29.7388 24.3592C29.844 24.3604 29.844 24.3604 29.9513 24.3615C30.3189 24.3599 30.5821 24.3403 30.8983 24.1309C31.0915 23.9326 31.1678 23.7954 31.1826 23.5175C31.1807 23.4075 31.1807 23.4075 31.1787 23.2954C31.1777 23.2214 31.1767 23.1475 31.1757 23.0713C31.1737 22.9867 31.1737 22.9867 31.1718 22.9004C31.1289 22.9 31.086 22.8996 31.0419 22.8992C30.5927 22.8948 30.1435 22.889 29.6944 22.8825C29.5271 22.8802 29.3598 22.8783 29.1925 22.8767C28.951 22.8744 28.7096 22.8708 28.4681 22.867C28.3942 22.8666 28.3204 22.8662 28.2443 22.8657C27.4306 22.8502 26.725 22.6813 26.1303 22.0999C25.4994 21.3523 25.4983 20.3774 25.5508 19.4503C25.6112 18.7777 25.8566 18.1944 26.3634 17.7401C27.0787 17.1877 27.9185 17.2131 28.7835 17.2095C28.8683 17.2081 28.9531 17.2067 29.0405 17.2052C29.8361 17.2018 29.8361 17.2018 30.2147 17.4317C30.3981 17.7067 30.3985 17.9288 30.3515 18.252C30.207 18.4912 30.1384 18.5737 29.8729 18.6621C29.7053 18.6702 29.5392 18.6748 29.3715 18.6766C29.2709 18.6785 29.1703 18.6804 29.0697 18.6824C28.9116 18.6853 28.7535 18.6878 28.5954 18.6896C28.4425 18.6915 28.2896 18.6946 28.1367 18.6979C28.0663 18.6983 28.0663 18.6983 27.9945 18.6986C27.6983 18.7061 27.5129 18.7581 27.2753 18.9356C26.9954 19.2498 27.0374 19.6271 27.0403 20.0251C27.0389 20.0918 27.0376 20.1586 27.0362 20.2273C27.0364 20.6262 27.0628 20.884 27.3437 21.1914C27.5584 21.3263 27.723 21.3449 27.9744 21.3437C28.0456 21.3437 28.1167 21.3437 28.19 21.3436C28.2664 21.3429 28.3427 21.3422 28.4214 21.3415C28.4999 21.3413 28.5784 21.3411 28.6593 21.3409C28.91 21.3402 29.1608 21.3384 29.4115 21.3367C29.5815 21.336 29.7515 21.3354 29.9215 21.3348C30.3383 21.3333 30.755 21.331 31.1718 21.3282C31.1786 20.9745 31.1835 20.6209 31.1868 20.2671C31.1882 20.1472 31.19 20.0273 31.1924 19.9074C31.2286 18.0409 30.4243 16.9922 29.1851 15.6802C28.8172 15.2285 28.6682 14.7335 28.5026 14.1827C28.4634 14.0551 28.4241 13.9275 28.3849 13.7998C28.3302 13.6213 28.2761 13.4426 28.2219 13.2639C28.0002 12.5332 27.7759 11.8033 27.5487 11.0742C27.5242 10.9954 27.4996 10.9165 27.4743 10.8353C27.4044 10.6126 27.3332 10.3903 27.2614 10.1682C27.2412 10.1036 27.221 10.039 27.2002 9.97247C26.8284 8.83993 26.1103 8.05115 25.0616 7.50274C24.3109 7.14568 23.5595 7.15738 22.7471 7.1579C22.6206 7.15749 22.4941 7.15703 22.3676 7.15651C22.0252 7.15531 21.6828 7.15498 21.3405 7.1549C21.1262 7.1548 20.9118 7.15451 20.6975 7.15414C19.9487 7.15288 19.1998 7.15232 18.451 7.15243C17.7549 7.15251 17.0588 7.15107 16.3627 7.14891C15.7635 7.14712 15.1643 7.14639 14.5651 7.14648C14.2079 7.14651 13.8507 7.14613 13.4935 7.14467C13.1572 7.14334 12.821 7.14335 12.4847 7.14433C12.362 7.14448 12.2393 7.14416 12.1165 7.14333C10.6149 7.13381 9.38091 7.55434 8.4081 8.75003ZM13.6718 22.627C13.6718 23.1909 13.6718 23.7549 13.6718 24.336C16.1983 24.336 18.7249 24.336 21.328 24.336C21.328 23.772 21.328 23.208 21.328 22.627C18.8015 22.627 16.2749 22.627 13.6718 22.627ZM5.0585 25.8399C4.92954 27.1953 4.92954 27.1953 5.26357 27.6856C5.47622 27.8273 5.52691 27.8399 5.76889 27.8432C5.82936 27.8443 5.88983 27.8454 5.95213 27.8465C6.01729 27.8469 6.08244 27.8473 6.14957 27.8477C6.25034 27.8486 6.25034 27.8486 6.35314 27.8495C6.4953 27.8505 6.63747 27.8511 6.77963 27.8514C6.99691 27.8522 7.21406 27.8556 7.43131 27.859C7.56946 27.8597 7.7076 27.8602 7.84574 27.8605C7.91062 27.8618 7.9755 27.8632 8.04235 27.8645C8.3596 27.8624 8.49835 27.8587 8.75514 27.6576C9.20531 27.0513 8.95498 27.0134 8.95498 25.8399C7.66914 25.8399 6.3833 25.8399 5.0585 25.8399ZM26.0448 25.8399C25.9058 27.2174 25.9058 27.2174 26.3183 27.7539C26.4764 27.833 26.5714 27.8326 26.7475 27.8355C26.8079 27.8366 26.8684 27.8377 26.9307 27.8388C27.2074 27.8418 27.4841 27.8447 27.7608 27.8462C27.9067 27.8474 28.0527 27.8492 28.1986 27.8518C28.409 27.8556 28.6193 27.8571 28.8297 27.8581C28.8948 27.8596 28.9599 27.8612 29.0269 27.8628C29.3449 27.8618 29.484 27.8591 29.7416 27.6577C30.1913 27.0509 29.9413 27.0145 29.9413 25.8399C28.6555 25.8399 27.3696 25.8399 26.0448 25.8399Z" stroke="#185AA6" stroke-width="0.6" mask="url(#path-1-outside-1_246_155)"/>
<path d="M25.8607 12.8733C25.6225 12.8724 25.3839 12.8719 25.1451 12.8731L25.1451 12.8731L25.8607 12.8733ZM25.8607 12.8733C25.8611 12.8733 25.8615 12.8733 25.8618 12.8733L26.0707 12.871L26.0737 12.871C26.2211 12.8724 26.3526 12.8736 26.4808 12.8976C26.6138 12.9225 26.7386 12.9707 26.8825 13.059L26.9008 13.0703L26.9153 13.0862C27.0462 13.231 27.1154 13.3697 27.1486 13.5225C27.1785 13.6602 27.1776 13.8058 27.1766 13.9579C27.1766 13.9657 27.1765 13.9735 27.1765 13.9814L27.1764 13.9918L27.1749 14.002L27.1732 14.0137C27.1625 14.0881 27.1533 14.1525 27.1192 14.2216C27.089 14.2829 27.0396 14.3465 26.9694 14.4371L26.9581 14.4516L26.9453 14.4681L26.9286 14.4804C26.8114 14.567 26.7127 14.6306 26.6005 14.6696C26.4873 14.7089 26.3716 14.7193 26.2261 14.7195L26.2263 14.7195L26.2257 14.5695L26.2259 14.7195L26.0356 14.7203L26.0349 14.7203L25.8243 14.7201L25.824 14.7201L25.6016 14.7207L25.6015 14.7207C25.3535 14.7213 25.1055 14.7214 24.8577 14.7215L24.8569 14.7215L24.8567 14.7215L24.3251 14.7226C23.8423 14.7235 23.3595 14.7239 22.8767 14.7242L21.9728 14.725C21.1388 14.7258 20.3048 14.7265 19.4709 14.7268L19.309 14.7268L19.1468 14.7268L18.8214 14.7269L18.6584 14.727C17.7866 14.7273 16.9147 14.7284 16.0429 14.73C15.148 14.7317 14.2532 14.7325 13.3583 14.7326C12.8558 14.7327 12.3534 14.733 11.8511 14.7343C11.3782 14.7355 10.9054 14.7356 10.4327 14.735L10.4329 14.585L10.4328 14.735C10.2593 14.7349 10.0859 14.7352 9.91238 14.7359L9.91235 14.7359C9.67545 14.7367 9.4387 14.7364 9.2022 14.7356L8.99353 14.7373L8.99127 14.7373L8.99127 14.7373L8.98036 14.7372C8.6462 14.7349 8.35357 14.7328 8.03874 14.4707L8.02233 14.457L8.01038 14.4393C7.79364 14.1182 7.80023 13.7746 7.84965 13.4446L7.85427 13.4137L7.8708 13.3873C7.97395 13.2222 8.07408 13.0921 8.2115 13.0085C8.35159 12.9233 8.51095 12.8979 8.70747 12.8974L8.70728 12.8974L8.708 13.0474L8.70767 12.8974L8.89941 12.8965L8.90016 12.8965V12.8965L9.11237 12.8965L9.11264 12.8965L9.33674 12.8958L9.3368 12.8958C9.587 12.895 9.83718 12.8948 10.0872 12.8945C10.0872 12.8945 10.0873 12.8945 10.0873 12.8945L10.6229 12.8932L10.6229 12.8931C11.1602 12.8918 11.6975 12.8911 12.2347 12.8905C12.2347 12.8905 12.2347 12.8905 12.2347 12.8905L12.9932 12.8895L12.9932 12.8895C13.8335 12.8883 14.6738 12.8873 15.5141 12.8868L16.1685 12.8864L16.3328 12.8863C17.2112 12.8858 18.0896 12.884 18.9681 12.8818C19.8698 12.8796 20.7715 12.8783 21.6731 12.8781C22.1794 12.878 22.6856 12.8774 23.1917 12.8756L25.8607 12.8733Z" fill="#185AA6" stroke="#185AA6" stroke-width="0.3"/>
<path d="M11.9886 16.998L11.9887 16.998C12.1575 16.9974 12.3263 16.9973 12.4948 16.9972C12.4949 16.9972 12.4949 16.9972 12.495 16.9972L12.8567 16.9961L12.8568 16.9961C13.1851 16.9952 13.5135 16.9948 13.8417 16.9945C13.8417 16.9945 13.8417 16.9945 13.8417 16.9945L14.4566 16.9937L14.4566 16.9937C15.0978 16.9928 15.7389 16.9921 16.3801 16.9919C17.1205 16.9915 17.8609 16.9903 18.6014 16.9884L18.6014 16.9884C19.1737 16.9869 19.7459 16.9862 20.3181 16.9861C20.6599 16.986 21.0016 16.9856 21.3432 16.9844L21.3432 16.9844L11.9886 16.998ZM11.9886 16.998L11.8368 16.9986L11.8372 17.1486L11.8366 16.9986L11.8367 16.9986C11.5981 16.9991 11.3737 17.0065 11.1762 17.0831C10.9685 17.1636 10.8051 17.3137 10.6689 17.5653L10.6577 17.5859L10.6534 17.6089C10.5969 17.9085 10.6053 18.1823 10.7365 18.4755L10.7506 18.507L10.777 18.5292C11.063 18.7691 11.3631 18.8686 11.7145 18.9053L11.7222 18.9061L11.73 18.9061L11.9955 18.906C12.1525 18.9069 12.3099 18.9075 12.4675 18.9067L12.4676 18.9067C12.582 18.9062 12.6964 18.906 12.8108 18.9061L11.9886 16.998ZM22.6614 16.9828C22.5438 16.9835 22.4261 16.9838 22.3084 16.9837L23.013 18.8983L23.0128 18.7483L23.0136 18.8983L23.0133 18.8983C23.2786 18.8978 23.5097 18.8873 23.7808 18.8147L23.7903 18.8121L23.7994 18.8084C23.9287 18.7549 24.0294 18.6999 24.1159 18.6197C24.2016 18.5402 24.2643 18.4442 24.3305 18.3245L24.3432 18.3015L24.3474 18.2755C24.3939 17.9827 24.4002 17.7032 24.2522 17.4073L24.2394 17.3817L24.2182 17.3627C24.1027 17.2591 23.9928 17.1722 23.8672 17.1074C23.7397 17.0416 23.6026 17.0019 23.4349 16.9836L23.4268 16.9828L23.4185 16.9828L23.1458 16.9831C22.9847 16.9823 22.8232 16.982 22.6615 16.9828L22.6614 16.9828ZM22.3723 18.8992L22.3726 18.8992L22.3722 18.7492L22.372 18.8992C22.3721 18.8992 22.3722 18.8992 22.3723 18.8992ZM20.2727 18.9016C20.5353 18.9013 20.7978 18.901 21.0603 18.9011L14.7495 18.9053C15.3074 18.9055 15.8653 18.9051 16.4233 18.9039L16.4233 18.9039C17.0724 18.9025 17.7215 18.9016 18.3706 18.902C19.0003 18.9024 19.6301 18.9024 20.2599 18.9017L20.2727 18.9016Z" fill="#185AA6" stroke="#185AA6" stroke-width="0.3"/>
</svg>
