<svg width="16" height="16" viewBox="0 0 16 16" fill="none" xmlns="http://www.w3.org/2000/svg">
<path fill-rule="evenodd" clip-rule="evenodd" d="M1.5 1.5V14H14V3.56047L11.4244 1.5H1.5ZM14.1275 3.66245C14.1275 3.66244 14.1275 3.66246 14.1275 3.66245V3.66245ZM0.435248 0.287364C0.68072 0.0909858 0.984339 0 1.275 0H11.4705C11.7609 0.000204682 12.0648 0.091258 12.31 0.287549L15.0642 2.49086C15.1881 2.5899 15.2977 2.71663 15.3766 2.86946C15.4558 3.0228 15.5003 3.19543 15.5 3.37564C15.5 3.37619 15.5 3.37675 15.5 3.3773L14.75 3.375L15.5 3.37564V14.33C15.5 14.5101 15.4553 14.6825 15.3761 14.8356C15.2973 14.9877 15.1882 15.1139 15.0648 15.2126C14.9415 15.3112 14.8036 15.383 14.6618 15.43C14.5199 15.477 14.3719 15.5 14.225 15.5H1.275C1.12812 15.5 0.980061 15.477 0.838178 15.43C0.696418 15.383 0.55847 15.3112 0.435248 15.2126C0.311829 15.1139 0.2027 14.9877 0.123943 14.8356C0.0446811 14.6825 0 14.5101 0 14.33V1.17C0 0.798808 0.185432 0.487216 0.435248 0.287364ZM3.5 6.35C3.5 5.93579 3.83579 5.6 4.25 5.6H11.25C11.6642 5.6 12 5.93579 12 6.35C12 6.76421 11.6642 7.1 11.25 7.1H4.25C3.83579 7.1 3.5 6.76421 3.5 6.35ZM3.5 9.15C3.5 8.73579 3.83579 8.4 4.25 8.4H7.75C8.16421 8.4 8.5 8.73579 8.5 9.15C8.5 9.56421 8.16421 9.9 7.75 9.9H4.25C3.83579 9.9 3.5 9.56421 3.5 9.15ZM3.5 11.95C3.5 11.5358 3.83579 11.2 4.25 11.2H11.25C11.6642 11.2 12 11.5358 12 11.95C12 12.3642 11.6642 12.7 11.25 12.7H4.25C3.83579 12.7 3.5 12.3642 3.5 11.95Z" fill="#185AA6"/>
<path fill-rule="evenodd" clip-rule="evenodd" d="M0.75 0C1.16421 0 1.5 0.335786 1.5 0.75V2.8H4.25C4.66421 2.8 5 3.13579 5 3.55C5 3.96421 4.66421 4.3 4.25 4.3H1.275C0.984341 4.3 0.68072 4.20901 0.435247 4.01264C0.18543 3.81278 0 3.50119 0 3.13V0.75C0 0.335786 0.335786 0 0.75 0Z" fill="#185AA6"/>
</svg>
