<svg width="395" height="157" viewBox="0 0 395 157" fill="none" xmlns="http://www.w3.org/2000/svg">
<g filter="url(#filter0_d_33_1820)">
<path d="M4 10C4 5.58172 7.58172 2 12 2H383C387.418 2 391 5.58172 391 10V143C391 147.418 387.418 151 383 151H12C7.58173 151 4 147.418 4 143V10Z" fill="#EDEDED"/>
<path d="M4.5 10C4.5 5.85786 7.85786 2.5 12 2.5H383C387.142 2.5 390.5 5.85787 390.5 10V143C390.5 147.142 387.142 150.5 383 150.5H12C7.85787 150.5 4.5 147.142 4.5 143V10Z" stroke="#F0F0F0"/>
</g>
<defs>
<filter id="filter0_d_33_1820" x="0" y="0" width="395" height="157" filterUnits="userSpaceOnUse" color-interpolation-filters="sRGB">
<feFlood flood-opacity="0" result="BackgroundImageFix"/>
<feColorMatrix in="SourceAlpha" type="matrix" values="0 0 0 0 0 0 0 0 0 0 0 0 0 0 0 0 0 0 127 0" result="hardAlpha"/>
<feOffset dy="2"/>
<feGaussianBlur stdDeviation="2"/>
<feComposite in2="hardAlpha" operator="out"/>
<feColorMatrix type="matrix" values="0 0 0 0 0 0 0 0 0 0 0 0 0 0 0 0 0 0 0.05 0"/>
<feBlend mode="normal" in2="BackgroundImageFix" result="effect1_dropShadow_33_1820"/>
<feBlend mode="normal" in="SourceGraphic" in2="effect1_dropShadow_33_1820" result="shape"/>
</filter>
</defs>
</svg>
