<svg width="16" height="16" viewBox="0 0 16 16" fill="none" xmlns="http://www.w3.org/2000/svg">
<path d="M7.27259 11.0907H8.72714V13.9998H7.27259V11.0907ZM10.909 9.63614H12.3635V13.9998H10.909V9.63614ZM3.63623 6.72705H5.09078V13.9998H3.63623V6.72705Z" fill="#0088AB"/>
<path d="M14.5455 2.13333H12.3636V1.42222C12.3636 1.04503 12.2104 0.683277 11.9376 0.416559C11.6648 0.149841 11.2949 0 10.9091 0H5.09091C4.70514 0 4.33517 0.149841 4.06239 0.416559C3.78961 0.683277 3.63636 1.04503 3.63636 1.42222V2.13333H1.45455C1.06878 2.13333 0.698807 2.28317 0.426026 2.54989C0.153246 2.81661 0 3.17836 0 3.55556V14.5778C0 14.955 0.153246 15.3167 0.426026 15.5834C0.698807 15.8502 1.06878 16 1.45455 16H14.5455C14.9312 16 15.3012 15.8502 15.574 15.5834C15.8468 15.3167 16 14.955 16 14.5778V3.55556C16 3.17836 15.8468 2.81661 15.574 2.54989C15.3012 2.28317 14.9312 2.13333 14.5455 2.13333ZM5.09091 1.42222H10.9091V4.26667H5.09091V1.42222ZM14.5455 14.5778H1.45455V3.55556H3.63636V5.68889H12.3636V3.55556H14.5455V14.5778Z" fill="#0088AB"/>
</svg>
