<svg width="16" height="16" viewBox="0 0 16 16" fill="none" xmlns="http://www.w3.org/2000/svg">
<path fill-rule="evenodd" clip-rule="evenodd" d="M2.25556 1.4C2.05704 1.4 1.84734 1.488 1.6788 1.67762C1.50786 1.86992 1.4 2.14665 1.4 2.45V12.95C1.4 13.2534 1.50786 13.5301 1.6788 13.7224C1.84734 13.912 2.05704 14 2.25556 14H13.1444C13.343 14 13.5527 13.912 13.7212 13.7224C13.8921 13.5301 14 13.2534 14 12.95V2.45C14 2.14665 13.8921 1.86992 13.7212 1.67762C13.5527 1.488 13.343 1.4 13.1444 1.4H2.25556ZM0.632425 0.747508C1.04733 0.280746 1.62896 0 2.25556 0H13.1444C13.771 0 14.3527 0.280746 14.7676 0.747508C15.1801 1.21159 15.4 1.8251 15.4 2.45V12.95C15.4 13.5749 15.1801 14.1884 14.7676 14.6525C14.3527 15.1193 13.771 15.4 13.1444 15.4H2.25556C1.62896 15.4 1.04732 15.1193 0.632425 14.6525C0.219912 14.1884 0 13.5749 0 12.95V2.45C0 1.8251 0.219912 1.21159 0.632425 0.747508Z" fill="#185AA6"/>
<path d="M1 5.3866H15V7.00004H1V5.3866Z" fill="#185AA6"/>
</svg>
