<svg width="16" height="16" viewBox="0 0 16 16" fill="none" xmlns="http://www.w3.org/2000/svg">
<path d="M15.6787 2.64301L8.14916 0.0252595C8.05244 -0.00841985 7.94785 -0.00841985 7.85112 0.0252595L0.321574 2.64301C0.227938 2.67561 0.146503 2.7381 0.0887931 2.82164C0.0310829 2.90517 2.00946e-05 3.00552 0 3.10848V9.65285C0 9.78303 0.0495805 9.90787 0.137835 9.99992C0.226089 10.092 0.345787 10.1437 0.470597 10.1437C0.595407 10.1437 0.715105 10.092 0.803359 9.99992C0.891613 9.90787 0.941193 9.78303 0.941193 9.65285V3.78909L3.97497 4.84437C3.5924 5.43407 3.33315 6.10117 3.21411 6.80227C3.09506 7.50337 3.11888 8.22276 3.28401 8.91362C3.44915 9.60449 3.7519 10.2513 4.17256 10.8121C4.59323 11.3729 5.12238 11.835 5.72559 12.1683C4.21576 12.7025 2.90201 13.7709 1.96082 15.2769C1.90672 15.385 1.89312 15.5102 1.92267 15.6282C1.95222 15.7461 2.0228 15.8484 2.12068 15.9151C2.21856 15.9817 2.33671 16.008 2.45215 15.9888C2.56758 15.9696 2.67203 15.9062 2.74515 15.8111C3.9585 13.8732 5.87305 12.7614 8.00014 12.7614C10.1272 12.7614 12.0418 13.8732 13.2551 15.8111C13.3278 15.9083 13.4329 15.9733 13.5494 15.9934C13.666 16.0135 13.7855 15.9872 13.8843 15.9196C13.9831 15.852 14.0539 15.7481 14.0826 15.6286C14.1114 15.5091 14.096 15.3827 14.0395 15.2745C13.0983 13.7709 11.7861 12.7025 10.2747 12.1659C10.8776 11.8322 11.4064 11.3698 11.8266 10.8089C12.2469 10.2479 12.5492 9.60101 12.714 8.91017C12.8788 8.21934 12.9022 7.50007 12.7829 6.79915C12.6636 6.09823 12.4041 5.43136 12.0214 4.84192L15.6787 3.57395C15.7723 3.54129 15.8537 3.47878 15.9113 3.39525C15.969 3.31172 16 3.2114 16 3.10848C16 3.00555 15.969 2.90524 15.9113 2.82171C15.8537 2.73818 15.7723 2.67566 15.6787 2.64301ZM11.9218 7.68954C11.9221 8.3413 11.773 8.9837 11.487 9.5632C11.201 10.1427 10.7864 10.6425 10.2777 11.0211C9.76901 11.3996 9.18094 11.6459 8.5625 11.7393C7.94406 11.8328 7.31316 11.7707 6.72236 11.5584C6.13157 11.346 5.59798 10.9895 5.16606 10.5185C4.73414 10.0474 4.4164 9.4756 4.23929 8.85056C4.06219 8.22552 4.03087 7.56539 4.14792 6.92516C4.26498 6.28493 4.52703 5.68315 4.91224 5.16996L7.85112 6.1917C7.94785 6.22538 8.05244 6.22538 8.14916 6.1917L11.088 5.16996C11.6291 5.88849 11.9227 6.77591 11.9218 7.68954ZM8.00014 5.20922L1.96082 3.10848L8.00014 1.00773L14.0395 3.10848L8.00014 5.20922Z" fill="#0089ab"/>
</svg>
